<svg width="60" height="60" viewBox="0 0 60 60" fill="none" xmlns="http://www.w3.org/2000/svg">
<path d="M30 48C23.75 48 18.225 44.8 15 40C15.075 35 25 32.25 30 32.25C35 32.25 44.925 35 45 40C41.775 44.8 36.25 48 30 48ZM30 12.5C31.9891 12.5 33.8968 13.2902 35.3033 14.6967C36.7098 16.1032 37.5 18.0109 37.5 20C37.5 21.9891 36.7098 23.8968 35.3033 25.3033C33.8968 26.7098 31.9891 27.5 30 27.5C28.0109 27.5 26.1032 26.7098 24.6967 25.3033C23.2902 23.8968 22.5 21.9891 22.5 20C22.5 18.0109 23.2902 16.1032 24.6967 14.6967C26.1032 13.2902 28.0109 12.5 30 12.5ZM30 5C26.717 5 23.4661 5.64664 20.4329 6.90301C17.3998 8.15938 14.6438 10.0009 12.3223 12.3223C7.63392 17.0107 5 23.3696 5 30C5 36.6304 7.63392 42.9893 12.3223 47.6777C14.6438 49.9991 17.3998 51.8406 20.4329 53.097C23.4661 54.3534 26.717 55 30 55C36.6304 55 42.9893 52.3661 47.6777 47.6777C52.3661 42.9893 55 36.6304 55 30C55 16.175 43.75 5 30 5Z" fill="#F1FFFA"/>
</svg>
