<svg width="1034" height="887" viewBox="0 0 1034 887" fill="none" xmlns="http://www.w3.org/2000/svg">
<path d="M311.278 369.963L760.855 369.963C771.895 369.963 780.845 361.013 780.845 349.973V20.814C780.845 9.77386 771.895 0.824005 760.855 0.824005L311.278 0.824005C300.238 0.824005 291.288 9.77386 291.288 20.814L291.288 349.973C291.288 361.013 300.238 369.963 311.278 369.963Z" fill="white"/>
<path d="M760.855 370.787H311.279C305.761 370.781 300.47 368.586 296.568 364.684C292.666 360.782 290.471 355.491 290.465 349.973V20.814C290.471 15.2957 292.666 10.0051 296.568 6.103C300.47 2.20094 305.761 0.00608783 311.279 0L760.855 0C766.374 0.00608734 771.664 2.20091 775.566 6.10294C779.469 10.005 781.664 15.2956 781.67 20.814V349.973C781.664 355.491 779.469 360.782 775.566 364.684C771.664 368.586 766.374 370.781 760.855 370.787ZM311.279 1.648C306.198 1.65382 301.326 3.67496 297.733 7.26802C294.14 10.8611 292.119 15.7326 292.113 20.814V349.973C292.119 355.054 294.14 359.926 297.733 363.519C301.326 367.112 306.198 369.133 311.279 369.139H760.855C765.937 369.133 770.808 367.112 774.401 363.519C777.995 359.926 780.016 355.054 780.022 349.973V20.814C780.016 15.7326 777.995 10.861 774.401 7.26796C770.808 3.67493 765.937 1.65382 760.855 1.648H311.279Z" fill="#292A2E"/>
<path d="M349.547 31.8335L317.415 34.8805C314.097 35.1952 311.661 38.1407 311.976 41.4594L315.023 73.5912C315.338 76.9099 318.283 79.3451 321.602 79.0304L353.734 75.9835C357.052 75.6688 359.488 72.7233 359.173 69.4046L356.126 37.2727C355.811 33.954 352.866 31.5188 349.547 31.8335Z" fill="#292A2E"/>
<path d="M441.05 101.537L408.959 98.0838C405.644 97.7272 402.668 100.125 402.312 103.439L398.859 135.53C398.502 138.845 400.9 141.821 404.215 142.177L436.306 145.63C439.62 145.987 442.596 143.589 442.953 140.274L446.405 108.184C446.762 104.869 444.364 101.893 441.05 101.537Z" fill="white"/>
<path d="M436.963 146.666C436.708 146.666 436.452 146.652 436.198 146.625L404.108 143.172C402.253 142.97 400.555 142.041 399.384 140.589C398.214 139.136 397.667 137.278 397.865 135.423L401.318 103.334C401.417 102.415 401.696 101.525 402.138 100.714C402.581 99.9026 403.18 99.1867 403.899 98.6069C404.619 98.027 405.446 97.5946 406.332 97.3344C407.219 97.0741 408.148 96.9911 409.067 97.09L441.157 100.543C443.012 100.743 444.712 101.672 445.883 103.125C447.054 104.578 447.599 106.437 447.4 108.292L443.947 140.381C443.762 142.105 442.947 143.7 441.658 144.859C440.369 146.019 438.697 146.663 436.963 146.666ZM436.411 144.636C437.739 144.779 439.069 144.389 440.109 143.551C441.15 142.713 441.814 141.496 441.957 140.168L445.411 108.078C445.554 106.75 445.163 105.419 444.325 104.379C443.487 103.339 442.27 102.674 440.942 102.531L408.851 99.079C408.194 99.0082 407.528 99.0677 406.894 99.254C406.259 99.4403 405.667 99.7498 405.152 100.165C404.637 100.58 404.209 101.092 403.892 101.673C403.575 102.253 403.376 102.89 403.305 103.548L399.852 135.637C399.711 136.965 400.102 138.295 400.94 139.335C401.778 140.374 402.994 141.039 404.322 141.184L436.411 144.636Z" fill="#292A2E"/>
<path d="M583.445 152.416C583.281 152.416 583.119 152.376 582.974 152.299C582.829 152.222 582.706 152.11 582.614 151.974C562.252 121.688 531.364 116.174 509.03 116.874C493.927 117.449 479.016 120.456 464.871 125.78C464.627 125.879 464.353 125.877 464.11 125.776C463.866 125.674 463.673 125.48 463.572 125.237C463.471 124.993 463.47 124.72 463.57 124.475C463.669 124.231 463.861 124.036 464.104 123.933C478.474 118.521 493.623 115.463 508.967 114.875C531.797 114.157 563.401 119.813 584.274 150.857C584.375 151.007 584.434 151.183 584.443 151.364C584.452 151.545 584.412 151.725 584.327 151.885C584.242 152.045 584.115 152.179 583.959 152.272C583.804 152.365 583.626 152.415 583.445 152.415V152.416Z" fill="#292A2E"/>
<path d="M583.815 152.825C583.723 152.825 583.631 152.812 583.542 152.787L563.052 147C562.797 146.928 562.581 146.758 562.451 146.526C562.321 146.295 562.289 146.021 562.361 145.766C562.433 145.511 562.604 145.295 562.835 145.165C563.066 145.035 563.34 145.003 563.595 145.075L583.123 150.589L588.638 131.061C588.715 130.812 588.887 130.602 589.116 130.477C589.345 130.353 589.614 130.323 589.866 130.394C590.117 130.465 590.33 130.631 590.46 130.858C590.591 131.084 590.627 131.352 590.562 131.605L584.776 152.095C584.717 152.305 584.592 152.49 584.418 152.621C584.245 152.753 584.033 152.825 583.815 152.825Z" fill="#292A2E"/>
<path d="M615.952 161.796L583.82 164.843C580.502 165.157 578.066 168.103 578.381 171.421L581.428 203.553C581.743 206.872 584.688 209.307 588.007 208.992L620.139 205.945C623.458 205.631 625.893 202.685 625.578 199.367L622.531 167.235C622.216 163.916 619.271 161.481 615.952 161.796Z" fill="#367CFF"/>
<path d="M720.967 63.0142L688.758 60.9432C685.431 60.7293 682.561 63.2527 682.347 66.5794L680.276 98.7889C680.062 102.116 682.586 104.986 685.912 105.2L718.122 107.271C721.448 107.485 724.319 104.961 724.533 101.635L726.604 69.4251C726.818 66.0983 724.294 63.2281 720.967 63.0142Z" fill="#292A2E"/>
<path d="M739.167 168.124L707.076 164.671C703.761 164.314 700.785 166.712 700.429 170.027L696.976 202.117C696.619 205.432 699.017 208.408 702.332 208.764L734.422 212.217C737.737 212.574 740.713 210.176 741.07 206.862L744.522 174.771C744.879 171.456 742.481 168.48 739.167 168.124Z" fill="#0CBC8B"/>
<path d="M563.009 272.66L530.877 275.707C527.558 276.022 525.123 278.968 525.438 282.286L528.485 314.418C528.799 317.737 531.745 320.172 535.064 319.857L567.195 316.81C570.514 316.496 572.949 313.55 572.635 310.231L569.588 278.1C569.273 274.781 566.328 272.346 563.009 272.66Z" fill="white"/>
<path d="M534.49 320.885C532.741 320.882 531.055 320.227 529.761 319.05C528.467 317.872 527.658 316.255 527.49 314.513L524.443 282.381C524.269 280.524 524.839 278.673 526.028 277.235C527.217 275.798 528.927 274.89 530.784 274.712L562.914 271.665C563.834 271.578 564.762 271.673 565.646 271.944C566.529 272.215 567.35 272.658 568.062 273.247C568.774 273.836 569.363 274.559 569.796 275.376C570.229 276.192 570.496 277.086 570.583 278.006L573.63 310.137C573.804 311.994 573.235 313.845 572.046 315.282C570.857 316.72 569.147 317.628 567.29 317.806L535.16 320.853C534.934 320.874 534.71 320.885 534.49 320.885ZM563.59 273.633C563.43 273.633 563.268 273.641 563.107 273.656L530.972 276.7C529.643 276.827 528.418 277.477 527.567 278.506C526.716 279.535 526.308 280.86 526.432 282.19L529.479 314.321C529.608 315.65 530.258 316.873 531.287 317.724C532.316 318.574 533.64 318.982 534.969 318.859L567.1 315.812C568.43 315.684 569.654 315.035 570.505 314.005C571.356 312.976 571.764 311.652 571.639 310.322L568.592 278.191C568.473 276.945 567.895 275.787 566.97 274.944C566.044 274.101 564.838 273.633 563.586 273.63L563.59 273.633Z" fill="#292A2E"/>
<path d="M355.825 261.793L323.693 264.84C320.374 265.155 317.939 268.1 318.254 271.419L321.301 303.551C321.616 306.869 324.561 309.304 327.88 308.99L360.012 305.943C363.33 305.628 365.766 302.683 365.451 299.364L362.404 267.232C362.089 263.913 359.144 261.478 355.825 261.793Z" fill="#367CFF"/>
<path d="M612.9 145.425C612.862 145.425 612.823 145.423 612.785 145.419C612.655 145.404 612.529 145.363 612.414 145.3C612.299 145.236 612.198 145.15 612.116 145.047C612.035 144.944 611.974 144.826 611.938 144.7C611.902 144.574 611.891 144.441 611.906 144.311C613.409 134.215 616.53 124.428 621.15 115.326C631.15 95.943 646.832 84.826 666.49 83.17C666.755 83.1477 667.017 83.2313 667.219 83.4025C667.422 83.5736 667.548 83.8182 667.571 84.0825C667.593 84.3468 667.509 84.6091 667.338 84.8117C667.167 85.0144 666.923 85.1407 666.658 85.163C620.809 89.019 613.958 143.985 613.892 144.54C613.864 144.783 613.747 145.008 613.565 145.171C613.382 145.334 613.145 145.425 612.9 145.425Z" fill="#292A2E"/>
<path d="M656.98 95.073C656.783 95.0731 656.589 95.0147 656.425 94.905C656.26 94.7953 656.132 94.6393 656.056 94.4567C655.98 94.2742 655.96 94.0732 655.998 93.8792C656.037 93.6853 656.132 93.507 656.271 93.367L665.511 84.086L656.231 74.846C656.136 74.7539 656.059 74.6437 656.007 74.5219C655.954 74.4 655.926 74.2688 655.925 74.1361C655.923 74.0033 655.948 73.8716 655.998 73.7486C656.048 73.6256 656.122 73.5138 656.216 73.4197C656.31 73.3256 656.421 73.2511 656.544 73.2006C656.667 73.15 656.798 73.1245 656.931 73.1253C657.064 73.1262 657.195 73.1535 657.317 73.2056C657.439 73.2578 657.55 73.3337 657.642 73.429L667.63 83.375C667.818 83.5625 667.923 83.8168 667.923 84.082C667.923 84.3471 667.818 84.6014 667.63 84.789L657.685 94.778C657.593 94.8712 657.483 94.9453 657.362 94.9959C657.241 95.0466 657.111 95.0727 656.98 95.073Z" fill="#292A2E"/>
<path d="M547.889 257.723C547.675 257.723 547.467 257.654 547.295 257.527C547.123 257.4 546.996 257.221 546.933 257.016C546.784 256.527 532.402 207.961 569.633 187.816C569.749 187.751 569.877 187.709 570.009 187.693C570.141 187.678 570.275 187.688 570.402 187.725C570.53 187.762 570.649 187.824 570.753 187.907C570.856 187.991 570.942 188.094 571.006 188.211C571.069 188.328 571.108 188.456 571.121 188.588C571.134 188.721 571.121 188.854 571.081 188.981C571.042 189.108 570.978 189.226 570.893 189.328C570.807 189.43 570.702 189.514 570.584 189.575C534.805 208.932 548.704 255.953 548.848 256.426C548.894 256.576 548.904 256.734 548.878 256.888C548.851 257.042 548.789 257.188 548.696 257.314C548.603 257.439 548.482 257.542 548.343 257.612C548.203 257.682 548.049 257.719 547.892 257.719L547.889 257.723Z" fill="#292A2E"/>
<path d="M565.83 201.156C565.668 201.156 565.508 201.116 565.364 201.04C565.22 200.964 565.097 200.854 565.005 200.72C564.914 200.586 564.856 200.431 564.838 200.27C564.819 200.108 564.84 199.945 564.899 199.793L569.071 189.076L558.354 184.9C558.112 184.801 557.918 184.61 557.815 184.369C557.711 184.129 557.706 183.857 557.801 183.613C557.896 183.368 558.083 183.171 558.322 183.063C558.561 182.955 558.832 182.946 559.078 183.036L570.728 187.57C570.851 187.618 570.963 187.689 571.057 187.78C571.152 187.871 571.228 187.979 571.281 188.1C571.334 188.22 571.363 188.349 571.365 188.481C571.368 188.612 571.345 188.743 571.297 188.865L566.762 200.514C566.69 200.703 566.562 200.865 566.396 200.98C566.23 201.094 566.032 201.156 565.83 201.156Z" fill="#292A2E"/>
<path d="M423.516 92.542C423.251 92.542 422.997 92.4366 422.809 92.2491C422.622 92.0616 422.516 91.8072 422.516 91.542C422.516 76.351 418.033 64.755 409.188 57.077C393.488 43.45 369.069 46.735 368.824 46.77C368.562 46.8075 368.295 46.7392 368.083 46.5801C367.87 46.421 367.73 46.1841 367.693 45.9215C367.655 45.6589 367.723 45.3922 367.883 45.18C368.042 44.9678 368.279 44.8275 368.541 44.79C369.576 44.641 394.092 41.334 410.49 55.558C419.798 63.633 424.517 75.74 424.516 91.542C424.516 91.6733 424.49 91.8034 424.44 91.9247C424.39 92.046 424.316 92.1562 424.223 92.2491C424.13 92.342 424.02 92.4156 423.899 92.4659C423.778 92.5161 423.647 92.542 423.516 92.542Z" fill="#292A2E"/>
<path d="M423.564 92.9C423.533 92.9 423.501 92.9 423.47 92.9C423.339 92.8877 423.212 92.8498 423.096 92.7884C422.98 92.7269 422.877 92.6432 422.793 92.542L413.8 81.683C413.631 81.4786 413.55 81.2154 413.575 80.9513C413.6 80.6871 413.728 80.4437 413.933 80.2745C414.137 80.1053 414.4 80.0242 414.664 80.049C414.928 80.0739 415.172 80.2026 415.341 80.407L423.7 90.5L433.788 82.148C433.889 82.0643 434.006 82.0013 434.132 81.9627C434.257 81.924 434.389 81.9105 434.52 81.9229C434.65 81.9352 434.777 81.9732 434.894 82.0346C435.01 82.0961 435.112 82.1798 435.196 82.281C435.28 82.3822 435.343 82.4988 435.381 82.6244C435.42 82.7499 435.434 82.8818 435.421 83.0125C435.409 83.1433 435.371 83.2703 435.309 83.3864C435.248 83.5024 435.164 83.6053 435.063 83.689L424.2 92.674C424.021 92.8207 423.796 92.9006 423.564 92.9Z" fill="#292A2E"/>
<path d="M445.674 202.858H413.398C410.065 202.858 407.362 205.56 407.362 208.894V241.17C407.362 244.504 410.065 247.206 413.398 247.206H445.674C449.008 247.206 451.71 244.504 451.71 241.17V208.894C451.71 205.56 449.008 202.858 445.674 202.858Z" fill="#0CBC8B"/>
<path d="M527.876 261.844C527.653 261.844 527.437 261.769 527.262 261.632C527.087 261.495 526.962 261.303 526.908 261.087C515.759 216.487 461.245 219.615 460.703 219.652C460.572 219.661 460.44 219.644 460.315 219.602C460.191 219.56 460.075 219.493 459.976 219.407C459.877 219.32 459.796 219.215 459.738 219.097C459.679 218.979 459.644 218.851 459.636 218.719C459.627 218.588 459.644 218.456 459.686 218.332C459.728 218.207 459.794 218.092 459.881 217.993C459.967 217.893 460.073 217.812 460.191 217.754C460.308 217.695 460.437 217.661 460.568 217.652C470.609 217.312 480.636 218.632 490.247 221.558C504.519 226.017 522.801 236.41 528.847 260.597C528.879 260.724 528.885 260.857 528.866 260.987C528.847 261.117 528.802 261.242 528.734 261.354C528.667 261.467 528.578 261.565 528.472 261.643C528.366 261.722 528.247 261.778 528.119 261.81C528.04 261.832 527.958 261.843 527.876 261.844Z" fill="#292A2E"/>
<path d="M528.015 262.181C527.807 262.181 527.605 262.116 527.436 261.996L516.119 253.965C515.903 253.811 515.757 253.578 515.712 253.317C515.668 253.055 515.73 252.787 515.883 252.57C516.037 252.354 516.27 252.208 516.532 252.164C516.793 252.12 517.062 252.181 517.278 252.335L527.767 259.779L535.244 248.937C535.395 248.721 535.626 248.573 535.886 248.526C536.146 248.48 536.414 248.538 536.631 248.688C536.848 248.838 536.998 249.067 537.046 249.327C537.095 249.586 537.038 249.855 536.89 250.073L528.838 261.749C528.763 261.858 528.667 261.951 528.555 262.023C528.444 262.094 528.319 262.143 528.189 262.166C528.132 262.176 528.073 262.181 528.015 262.181Z" fill="#292A2E"/>
<path d="M1019.64 905.254L1021.6 904.876L990.904 599.845L988.94 600.223L1019.64 905.254Z" fill="#494949"/>
<path d="M905.338 905.254L907.302 904.876L876.607 599.845L874.643 600.223L905.338 905.254Z" fill="#494949"/>
<path d="M652.69 905.254L650.726 904.876L681.422 599.845L683.386 600.223L652.69 905.254Z" fill="#494949"/>
<path d="M766.988 905.254L765.024 904.876L795.719 599.845L797.683 600.223L766.988 905.254Z" fill="#494949"/>
<path d="M807.685 465.592L789.753 599.896L791.736 600.161L809.668 465.857L807.685 465.592Z" fill="#494949"/>
<path d="M1013.51 465.592L995.576 599.896L997.558 600.16L1015.49 465.856L1013.51 465.592Z" fill="#494949"/>
<path d="M789.935 609.869H991.255C996.687 609.869 1001.09 605.466 1001.09 600.034V600.033C1001.09 594.601 996.687 590.198 991.255 590.198H789.935C784.503 590.198 780.1 594.601 780.1 600.033V600.034C780.1 605.466 784.503 609.869 789.935 609.869Z" fill="#292A2E"/>
<path opacity="0.8" d="M789.935 609.869H991.255C996.687 609.869 1001.09 605.466 1001.09 600.034V600.033C1001.09 594.601 996.687 590.198 991.255 590.198H789.935C784.503 590.198 780.1 594.601 780.1 600.033V600.034C780.1 605.466 784.503 609.869 789.935 609.869Z" fill="white"/>
<path d="M779.1 600.034C779.104 597.161 780.246 594.408 782.277 592.377C784.309 590.346 787.063 589.203 789.935 589.2H991.255C994.129 589.2 996.885 590.341 998.917 592.373C1000.95 594.405 1002.09 597.161 1002.09 600.035C1002.09 602.909 1000.95 605.664 998.917 607.696C996.885 609.728 994.129 610.87 991.255 610.87H789.935C787.062 610.866 784.308 609.724 782.277 607.692C780.246 605.661 779.103 602.907 779.1 600.034ZM789.935 591.199C787.592 591.199 785.345 592.13 783.688 593.787C782.031 595.444 781.1 597.691 781.1 600.034C781.1 602.377 782.031 604.624 783.688 606.281C785.345 607.938 787.592 608.869 789.935 608.869H991.255C993.598 608.869 995.845 607.938 997.502 606.281C999.159 604.624 1000.09 602.377 1000.09 600.034C1000.09 597.691 999.159 595.444 997.502 593.787C995.845 592.13 993.598 591.199 991.255 591.199H789.935Z" fill="#292A2E"/>
<path d="M679.44 609.869H880.76C886.192 609.869 890.595 605.466 890.595 600.034V600.033C890.595 594.601 886.192 590.198 880.76 590.198H679.44C674.008 590.198 669.605 594.601 669.605 600.033V600.034C669.605 605.466 674.008 609.869 679.44 609.869Z" fill="white"/>
<path d="M668.6 600.034C668.604 597.161 669.747 594.406 671.78 592.375C673.812 590.344 676.567 589.202 679.44 589.2H880.76C883.634 589.2 886.39 590.341 888.422 592.373C890.454 594.405 891.595 597.161 891.595 600.035C891.595 602.909 890.454 605.664 888.422 607.696C886.39 609.728 883.634 610.87 880.76 610.87H679.44C676.567 610.868 673.811 609.725 671.779 607.694C669.747 605.662 668.604 602.907 668.6 600.034ZM679.44 591.2C678.28 591.2 677.131 591.428 676.059 591.872C674.987 592.316 674.013 592.967 673.193 593.788C672.372 594.608 671.722 595.582 671.278 596.654C670.834 597.726 670.605 598.875 670.605 600.035C670.605 601.195 670.834 602.344 671.278 603.416C671.722 604.488 672.372 605.462 673.193 606.282C674.013 607.103 674.987 607.753 676.059 608.197C677.131 608.641 678.28 608.87 679.44 608.87H880.76C883.103 608.87 885.35 607.939 887.007 606.282C888.664 604.625 889.595 602.378 889.595 600.035C889.595 597.692 888.664 595.445 887.007 593.788C885.35 592.131 883.103 591.2 880.76 591.2H679.44Z" fill="#292A2E"/>
<path d="M818.724 465.73H1013.97C1017.16 465.73 1020.25 464.568 1022.65 462.461C1025.04 460.355 1026.59 457.448 1027.01 454.282L1039.92 355.1C1040.16 353.246 1040.01 351.362 1039.46 349.574C1038.92 347.785 1038 346.134 1036.76 344.729C1035.53 343.324 1034.01 342.199 1032.31 341.428C1030.6 340.657 1028.76 340.258 1026.89 340.258H831.639C828.446 340.257 825.361 341.419 822.962 343.526C820.562 345.633 819.012 348.541 818.6 351.708L805.685 450.888C805.444 452.742 805.601 454.627 806.146 456.415C806.691 458.204 807.611 459.856 808.845 461.261C810.079 462.665 811.599 463.791 813.302 464.561C815.006 465.332 816.854 465.731 818.724 465.73Z" fill="#292A2E"/>
<path opacity="0.8" d="M818.724 465.73H1013.97C1017.16 465.73 1020.25 464.568 1022.65 462.461C1025.04 460.355 1026.59 457.448 1027.01 454.282L1039.92 355.1C1040.16 353.246 1040.01 351.362 1039.46 349.574C1038.92 347.785 1038 346.134 1036.76 344.729C1035.53 343.324 1034.01 342.199 1032.31 341.428C1030.6 340.657 1028.76 340.258 1026.89 340.258H831.639C828.446 340.257 825.361 341.419 822.962 343.526C820.562 345.633 819.012 348.541 818.6 351.708L805.685 450.888C805.444 452.742 805.601 454.627 806.146 456.415C806.691 458.204 807.611 459.856 808.845 461.261C810.079 462.665 811.599 463.791 813.302 464.561C815.006 465.332 816.854 465.731 818.724 465.73Z" fill="white"/>
<path d="M808.1 461.919C806.772 460.408 805.782 458.63 805.196 456.706C804.61 454.781 804.441 452.754 804.7 450.759L817.615 351.579C818.066 348.176 819.736 345.051 822.315 342.786C824.894 340.52 828.208 339.268 831.641 339.26H1026.89C1028.9 339.26 1030.89 339.689 1032.72 340.519C1034.55 341.348 1036.19 342.559 1037.52 344.071C1038.84 345.583 1039.83 347.36 1040.42 349.285C1041.01 351.21 1041.17 353.237 1040.91 355.232L1028 454.411C1027.55 457.814 1025.88 460.939 1023.3 463.204C1020.72 465.47 1017.41 466.722 1013.97 466.73H818.724C816.713 466.729 814.725 466.3 812.893 465.47C811.061 464.641 809.427 463.43 808.1 461.919ZM831.639 341.26C828.692 341.267 825.848 342.343 823.634 344.289C821.42 346.234 819.987 348.916 819.6 351.837L806.685 451.017C806.462 452.73 806.607 454.471 807.11 456.123C807.613 457.775 808.463 459.301 809.603 460.599C810.743 461.897 812.146 462.937 813.72 463.649C815.293 464.361 817.001 464.73 818.728 464.73H1013.98C1016.92 464.724 1019.77 463.648 1021.98 461.703C1024.2 459.758 1025.63 457.075 1026.02 454.153L1038.93 354.973C1039.16 353.26 1039.01 351.52 1038.51 349.867C1038 348.215 1037.15 346.689 1036.02 345.391C1034.88 344.093 1033.47 343.053 1031.9 342.341C1030.32 341.629 1028.62 341.26 1026.89 341.26H831.639Z" fill="#292A2E"/>
<path d="M807.683 465.73H1002.93C1006.12 465.73 1009.21 464.568 1011.6 462.461C1014 460.355 1015.55 457.448 1015.97 454.282L1028.88 355.1C1029.12 353.246 1028.96 351.362 1028.42 349.574C1027.88 347.785 1026.96 346.133 1025.72 344.729C1024.49 343.324 1022.97 342.199 1021.27 341.428C1019.56 340.657 1017.71 340.258 1015.85 340.258H820.6C817.408 340.258 814.325 341.42 811.927 343.526C809.528 345.632 807.978 348.54 807.566 351.705L794.651 450.885C794.409 452.739 794.565 454.623 795.11 456.412C795.654 458.2 796.573 459.852 797.807 461.257C799.04 462.662 800.559 463.788 802.262 464.559C803.965 465.331 805.813 465.73 807.683 465.73Z" fill="white"/>
<path d="M797.055 461.919C795.728 460.407 794.738 458.63 794.151 456.706C793.565 454.781 793.396 452.754 793.655 450.759L806.57 351.579C807.021 348.175 808.691 345.05 811.272 342.785C813.852 340.519 817.166 339.267 820.6 339.26H1015.85C1017.86 339.26 1019.85 339.689 1021.68 340.519C1023.51 341.348 1025.15 342.559 1026.48 344.071C1027.8 345.583 1028.79 347.36 1029.38 349.285C1029.96 351.21 1030.13 353.237 1029.87 355.232L1016.96 454.411C1016.51 457.814 1014.84 460.939 1012.26 463.204C1009.68 465.469 1006.37 466.722 1002.93 466.73H807.683C805.671 466.73 803.683 466.3 801.85 465.471C800.017 464.641 798.383 463.43 797.055 461.919ZM820.6 341.26C817.653 341.267 814.808 342.343 812.593 344.288C810.378 346.233 808.944 348.915 808.557 351.837L795.642 451.017C795.419 452.73 795.564 454.471 796.067 456.123C796.57 457.775 797.42 459.301 798.56 460.599C799.7 461.897 801.103 462.937 802.677 463.649C804.25 464.361 805.958 464.73 807.685 464.73H1002.93C1005.88 464.724 1008.72 463.648 1010.94 461.703C1013.15 459.758 1014.59 457.075 1014.97 454.153L1027.89 354.974C1028.11 353.261 1027.97 351.52 1027.46 349.868C1026.96 348.216 1026.11 346.689 1024.97 345.392C1023.83 344.094 1022.43 343.054 1020.85 342.341C1019.28 341.629 1017.57 341.26 1015.85 341.26H820.6Z" fill="#292A2E"/>
<path d="M660.119 852.415C660.119 852.415 654.758 880.209 628.735 881.758C602.712 883.307 608.355 904.037 608.355 904.037H707.8V854.353L660.119 852.415Z" fill="#367CFF"/>
<path d="M749.346 834.867C749.346 834.867 756.803 862.173 734.137 875.05C711.471 887.927 725.684 904.037 725.684 904.037L814.916 860.137L792.985 815.56L749.346 834.867Z" fill="#367CFF"/>
<path d="M804.614 827.154L729.365 589.764H865.765C893.165 589.764 904.586 566.529 904.586 539.131C904.586 511.733 877.651 487.715 850.253 487.715H666.162C649.452 487.715 630.714 497.935 621.542 511.905C612.37 525.875 614.849 547.523 621.494 562.856L741.994 855.523" fill="#262626"/>
<path opacity="0.8" d="M804.614 827.154L729.365 589.764H865.765C893.165 589.764 904.586 566.529 904.586 539.131C904.586 511.733 877.651 487.715 850.253 487.715H666.162C649.452 487.715 630.714 497.935 621.542 511.905C612.37 525.875 614.849 547.523 621.494 562.856L741.994 855.523" fill="#0A0A0A"/>
<path d="M715.574 872.339L739.374 589.764L904.583 589.753C943.295 586.719 961.023 565.503 960.46 538.111C959.903 511.066 946.21 484.354 919.286 484.354H696.62C676.7 484.763 653.638 503.606 653.638 525.278L642.067 869.056" fill="#262626"/>
<path d="M971.732 484.685C971.732 484.685 979.069 532.531 967.439 559.132C952.92 592.342 898.492 589.754 898.492 589.754L901.559 484.354L971.732 484.685Z" fill="#262626"/>
<path d="M979.818 479.277L980.03 479.289C980.03 479.289 979.877 475.213 979.818 479.277Z" fill="#333333"/>
<path d="M979.552 479.277L979.764 479.289C979.764 479.289 979.611 475.213 979.552 479.277Z" fill="#333333"/>
<path d="M625.367 285.3C625.756 284.529 626.375 283.898 627.138 283.494C627.902 283.09 628.772 282.932 629.628 283.044C629.621 282.968 629.638 282.891 629.676 282.825C629.716 282.774 629.768 282.734 629.828 282.709C629.888 282.685 629.954 282.677 630.018 282.686L627.128 280.614C626.265 280.022 625.645 279.138 625.382 278.124C625.12 277.111 625.233 276.037 625.7 275.1C626.192 274.189 627.005 273.494 627.981 273.149C628.957 272.803 630.026 272.833 630.982 273.231C630.975 273.19 631.002 273.151 631.008 273.109L629.821 272.258C629.009 271.697 628.416 270.874 628.142 269.926C627.868 268.979 627.929 267.966 628.315 267.058C628.57 266.494 628.946 265.993 629.418 265.592C629.89 265.19 630.445 264.899 631.043 264.738C631.641 264.577 632.267 264.551 632.876 264.662C633.485 264.772 634.062 265.016 634.566 265.377L637.307 267.341C637.315 267.325 637.307 267.306 637.318 267.291C637.329 267.276 637.358 267.27 637.374 267.254C636.745 266.546 636.375 265.645 636.325 264.699C636.275 263.753 636.547 262.819 637.098 262.048C638.392 259.967 641.378 260.392 643.15 261.662L659.281 272.804L656.4 267.94C655.819 267.006 655.615 265.886 655.828 264.807C656.041 263.728 656.656 262.77 657.548 262.127C658.02 261.811 658.551 261.595 659.11 261.491C659.668 261.387 660.242 261.399 660.796 261.524C661.35 261.649 661.873 261.886 662.332 262.22C662.791 262.554 663.178 262.979 663.468 263.467L679.211 289.967C681.058 293.076 681.619 296.783 680.777 300.3C679.934 303.817 677.753 306.866 674.698 308.801C671.155 311.045 667.022 312.179 662.83 312.059C658.637 311.938 654.577 310.569 651.168 308.125L626.808 290.665C625.999 290.063 625.417 289.207 625.155 288.233C624.893 287.259 624.968 286.226 625.367 285.3Z" fill="#E98862"/>
<g opacity="0.25">
<path d="M653.27 278.343C653.211 278.424 653.122 278.48 653.022 278.496C652.923 278.513 652.821 278.49 652.738 278.433L637.412 267.818C637.329 267.759 637.272 267.67 637.254 267.57C637.236 267.47 637.259 267.366 637.317 267.283C637.374 267.199 637.463 267.141 637.563 267.123C637.663 267.104 637.767 267.126 637.851 267.183L653.178 277.8C653.22 277.829 653.256 277.865 653.284 277.908C653.311 277.95 653.33 277.998 653.34 278.048C653.349 278.098 653.348 278.149 653.338 278.198C653.327 278.248 653.307 278.295 653.278 278.337L653.27 278.343Z" fill="#0C0C0C"/>
</g>
<g opacity="0.25">
<path d="M648.775 285.232C648.716 285.313 648.627 285.369 648.527 285.385C648.428 285.402 648.326 285.379 648.243 285.322L631.143 273.475C631.059 273.417 631.001 273.328 630.982 273.227C630.963 273.126 630.985 273.022 631.043 272.938C631.103 272.856 631.192 272.801 631.292 272.782C631.391 272.763 631.495 272.783 631.58 272.838L648.685 284.685C648.727 284.714 648.763 284.75 648.79 284.793C648.818 284.835 648.837 284.883 648.846 284.933C648.856 284.983 648.855 285.034 648.844 285.083C648.834 285.133 648.814 285.18 648.785 285.222L648.775 285.232Z" fill="#0C0C0C"/>
</g>
<g opacity="0.25">
<path d="M643.949 292.721C643.89 292.802 643.801 292.858 643.701 292.874C643.602 292.891 643.5 292.868 643.417 292.811L629.773 283.361C629.692 283.301 629.637 283.213 629.621 283.113C629.604 283.014 629.627 282.912 629.684 282.83C629.742 282.747 629.829 282.69 629.928 282.671C630.026 282.652 630.129 282.672 630.213 282.727L643.857 292.177C643.899 292.206 643.935 292.242 643.962 292.285C643.99 292.327 644.009 292.375 644.018 292.425C644.028 292.475 644.027 292.526 644.016 292.575C644.006 292.625 643.986 292.672 643.957 292.714L643.949 292.721Z" fill="#0C0C0C"/>
</g>
<path d="M688.5 283.934L734.732 362.673L791.145 288.68L837.993 330.917L757.983 434.533L757.459 435.27C754.257 439.656 749.99 443.155 745.062 445.436C740.134 447.718 734.706 448.707 729.289 448.311C723.873 447.914 718.647 446.145 714.103 443.171C709.559 440.196 705.848 436.114 703.318 431.308L637.575 312.252L688.5 283.934Z" fill="#367CFF"/>
<path d="M739.261 372.141C739.362 372.141 739.46 372.115 739.548 372.066C739.636 372.017 739.709 371.946 739.762 371.861C739.814 371.775 739.844 371.677 739.848 371.577C739.852 371.476 739.83 371.376 739.784 371.287L735.252 362.406C735.178 362.273 735.055 362.173 734.91 362.129C734.764 362.084 734.606 362.098 734.47 362.167C734.335 362.236 734.231 362.356 734.182 362.5C734.132 362.644 734.14 362.802 734.205 362.94L738.738 371.821C738.787 371.917 738.862 371.998 738.954 372.055C739.047 372.111 739.153 372.141 739.261 372.141Z" fill="#0C0C0C"/>
<path d="M794.393 362.226L793.221 362.293L794.632 387.162L795.805 387.095L794.393 362.226Z" fill="#0C0C0C"/>
<path d="M943.366 182.24C943.366 182.24 945.533 209.922 951.882 219.901C970.16 248.628 975.735 281.12 957.963 298.333C940.191 315.546 825.586 317.111 816.451 278.1C808.76 245.253 824.406 241.531 827.908 214.32C829.493 202.009 833.945 176.179 833.945 176.179" fill="#0A0A0A"/>
<path d="M845.627 271.859C845.827 271.833 848.02 308.259 890.341 305.087C919.641 302.892 930.085 271.807 930.757 271.807C927.598 271.136 922.279 270.16 920.876 269.407C916.262 266.928 910.554 264.349 909.067 255.39C908.21 250.226 909.667 223.809 909.216 218.584L864.244 228.622C864.872 239.656 869.27 265.236 853.855 269.763C851.29 270.516 848.527 271.205 845.627 271.859Z" fill="#E98862"/>
<path opacity="0.52" d="M863.613 259.313C864.317 257.043 864.771 254.702 864.966 252.333C865.46 246.927 865.362 241.483 864.672 236.099C873.813 234.865 882.424 231.092 889.528 225.209C890.363 228.293 894.956 241.769 893.684 244.7C891.28 250.241 879.985 259.313 863.613 259.313Z" fill="#0C0C0C"/>
<path d="M869.574 247.848C887.323 249.358 910.181 242 914.66 218.335L918.701 196.981C923.18 173.315 914.381 151.781 892.101 147.561C869.819 143.344 849.533 159.377 845.054 183.043L843.265 192.496C841.544 201.577 837.905 245.153 869.574 247.848Z" fill="#E98862"/>
<path d="M849.613 193.527C851.155 193.527 852.406 192.277 852.406 190.734C852.406 189.191 851.155 187.941 849.613 187.941C848.07 187.941 846.82 189.191 846.82 190.734C846.82 192.277 848.07 193.527 849.613 193.527Z" fill="#0C0C0C"/>
<path d="M878.229 197.349C879.772 197.349 881.022 196.098 881.022 194.556C881.022 193.013 879.772 191.763 878.229 191.763C876.687 191.763 875.436 193.013 875.436 194.556C875.436 196.098 876.687 197.349 878.229 197.349Z" fill="#0C0C0C"/>
<path d="M862.525 215.034C862.51 215.033 862.496 215.031 862.482 215.028C861.579 214.85 860.687 214.623 859.81 214.347C858.499 213.926 856.783 213.228 857.01 212.047C857.264 210.699 863.71 196.847 864.446 195.274C864.51 195.136 864.626 195.03 864.769 194.978C864.911 194.926 865.069 194.932 865.206 194.996C865.344 195.061 865.451 195.177 865.503 195.319C865.555 195.462 865.548 195.619 865.484 195.757C862.734 201.657 858.306 211.357 858.135 212.257C858.282 212.678 860.457 213.477 862.697 213.902C862.844 213.928 862.974 214.01 863.061 214.131C863.148 214.252 863.184 214.402 863.162 214.55C863.14 214.697 863.062 214.83 862.943 214.92C862.825 215.01 862.676 215.051 862.528 215.033L862.525 215.034Z" fill="#0C0C0C"/>
<path d="M865.825 225.252C862.19 224.78 858.717 223.46 855.686 221.4C855.559 221.317 855.47 221.187 855.438 221.039C855.407 220.89 855.436 220.735 855.519 220.608C855.602 220.481 855.732 220.392 855.88 220.36C856.029 220.329 856.184 220.358 856.311 220.441C862.87 224.715 869.389 225.406 875.16 222.441C875.276 222.377 875.396 222.32 875.519 222.27C875.662 222.218 875.819 222.226 875.956 222.29C876.094 222.354 876.2 222.471 876.251 222.613C876.303 222.756 876.296 222.914 876.231 223.051C876.167 223.188 876.051 223.294 875.908 223.346C875.863 223.365 875.787 223.405 875.683 223.459C872.648 225.024 869.216 225.648 865.825 225.252Z" fill="#0C0C0C"/>
<path d="M936.527 204.423L916.552 200.761C901.425 194.639 896.852 168.451 896.852 168.451C896.852 168.451 878.477 186.361 833.952 176.175C833.952 176.175 842.881 114.075 908.667 132.131C929.879 137.954 945.103 159.331 943.207 187.899C941.871 207.92 936.527 204.423 936.527 204.423Z" fill="#0A0A0A"/>
<path d="M911.912 225.283C918.683 226.564 925.543 220.359 926.825 213.583C928.107 206.807 923.325 202.038 916.552 200.757L912.204 204.634L906.09 224.177L911.912 225.283Z" fill="#E98862"/>
<path d="M860.363 183.954C858.388 182.678 856.106 181.958 853.756 181.868C852.6 181.816 851.442 181.939 850.322 182.231C849.212 182.516 848.143 182.94 847.139 183.492C847.011 183.569 846.916 183.691 846.873 183.835C846.83 183.978 846.843 184.133 846.908 184.267C846.973 184.402 847.086 184.508 847.225 184.563C847.364 184.619 847.519 184.621 847.659 184.568L847.701 184.549C848.629 184.095 849.61 183.759 850.622 183.549C851.622 183.335 852.649 183.273 853.667 183.367C855.687 183.535 857.627 184.236 859.289 185.398L859.343 185.437C859.438 185.516 859.548 185.575 859.666 185.609C859.784 185.644 859.909 185.654 860.031 185.639C860.153 185.624 860.271 185.583 860.377 185.521C860.484 185.458 860.576 185.374 860.648 185.274C860.721 185.174 860.772 185.061 860.798 184.94C860.825 184.82 860.826 184.695 860.803 184.574C860.779 184.453 860.731 184.338 860.661 184.236C860.591 184.135 860.501 184.048 860.397 183.983L860.363 183.954Z" fill="#0C0C0C"/>
<path d="M878.177 188.148C880.146 187.666 882.208 187.714 884.153 188.285C885.136 188.566 886.072 188.995 886.927 189.556C887.794 190.118 888.587 190.788 889.287 191.548L889.319 191.58C889.431 191.68 889.575 191.734 889.725 191.733C889.875 191.731 890.018 191.674 890.128 191.571C890.237 191.469 890.305 191.33 890.317 191.181C890.329 191.032 890.285 190.883 890.193 190.765C889.456 189.888 888.612 189.107 887.681 188.44C886.742 187.763 885.707 187.23 884.61 186.86C882.386 186.095 879.998 185.943 877.695 186.419C877.475 186.482 877.288 186.625 877.17 186.821C877.053 187.017 877.014 187.25 877.062 187.473C877.11 187.697 877.241 187.893 877.428 188.024C877.616 188.154 877.846 188.208 878.072 188.175L878.109 188.166L878.177 188.148Z" fill="#0C0C0C"/>
<path d="M865.052 230.625C864.393 230.55 863.742 230.419 863.106 230.234C862.96 230.192 862.837 230.094 862.763 229.961C862.69 229.828 862.672 229.671 862.714 229.525C862.756 229.38 862.855 229.256 862.987 229.183C863.12 229.11 863.277 229.092 863.423 229.134C867.253 230.234 869.431 228.776 869.523 228.713C869.647 228.626 869.801 228.591 869.95 228.618C870.1 228.644 870.233 228.728 870.32 228.852C870.408 228.977 870.442 229.131 870.416 229.28C870.39 229.43 870.305 229.563 870.181 229.65C868.635 230.558 866.823 230.902 865.052 230.625Z" fill="#0C0C0C"/>
<path d="M916.509 200.508L916.709 199.955C891.401 190.87 897.59 166.034 897.655 165.784L897.087 165.635C897.019 165.89 890.688 191.238 916.509 200.508Z" fill="#0C0C0C"/>
<path opacity="0.1" d="M886.19 213.464C886.42 211.321 884.239 209.328 881.317 209.014C878.395 208.7 875.84 210.182 875.609 212.325C875.378 214.469 877.56 216.461 880.482 216.775C883.404 217.09 885.959 215.607 886.19 213.464Z" fill="#0C0C0C"/>
<path opacity="0.1" d="M849.556 208.578C849.319 210.718 846.765 212.199 843.843 211.888C843.338 211.834 842.84 211.727 842.357 211.57C842.192 209.023 842.157 206.57 842.204 204.302C843.012 204.09 843.852 204.031 844.681 204.128C847.6 204.438 849.784 206.43 849.556 208.578Z" fill="#0C0C0C"/>
<path d="M793.046 352.06C794.379 367.721 800.863 465.06 802.146 484.354L971.732 484.714C972.732 467.314 984.258 391.242 988.042 357.22C991.654 324.756 998.742 308.502 993.542 298.904C985.054 283.218 961.86 274.154 946.042 272.012C936.385 270.705 921.859 269.768 921.859 269.768C921.859 269.768 920.63 294.647 891.304 296.032C851.383 297.915 854.049 269.768 853.851 269.768C847.384 269.768 810.439 273.861 801.4 279.219C776.775 293.8 790.216 318.873 793.046 352.06Z" fill="#367CFF"/>
<path d="M682.968 363L699.315 442.453C699.647 444.066 700.522 445.517 701.794 446.563C703.066 447.61 704.659 448.188 706.306 448.202L818.867 449.16C819.941 449.169 821.003 448.938 821.976 448.484C822.949 448.029 823.808 447.363 824.49 446.533C825.172 445.704 825.66 444.732 825.918 443.69C826.176 442.648 826.198 441.561 825.981 440.509L809.634 361.056C809.302 359.443 808.427 357.992 807.155 356.946C805.882 355.9 804.29 355.322 802.643 355.308L690.082 354.349C689.008 354.34 687.946 354.571 686.973 355.025C686 355.48 685.141 356.146 684.459 356.976C683.777 357.805 683.289 358.776 683.031 359.819C682.773 360.861 682.752 361.948 682.968 363Z" fill="#292A2E"/>
<path d="M787.929 419.437C787.869 420.483 788.189 421.515 788.83 422.344C789.472 423.173 790.391 423.742 791.418 423.947L794.883 424.711C794.821 424.731 794.765 424.767 794.72 424.814C794.675 424.861 794.642 424.918 794.624 424.981C794.616 425.055 794.632 425.129 794.671 425.192C793.838 425.426 793.099 425.914 792.556 426.587C792.013 427.261 791.693 428.087 791.641 428.951C791.636 429.958 791.971 430.937 792.591 431.73C793.211 432.523 794.081 433.083 795.059 433.321L824.319 439.821C825.815 440.155 827.344 440.323 828.877 440.321C832.292 440.321 835.656 439.49 838.678 437.899C841.701 436.309 844.291 434.008 846.226 431.194C848.278 428.217 849.087 424.556 848.482 420.991C847.876 417.427 845.904 414.239 842.984 412.106L818.094 393.906C817.546 393.505 816.909 393.243 816.238 393.142L818.528 404.266L817.918 404.125L817.788 404.102L798.7 400.22C796.574 399.75 793.661 400.52 793.285 402.945C793.083 403.871 793.201 404.838 793.618 405.689C794.036 406.54 794.729 407.225 795.585 407.632C795.573 407.643 795.549 407.655 795.549 407.679C795.549 407.703 795.561 407.714 795.561 407.737L792.261 407.009C791.657 406.876 791.032 406.877 790.429 407.015C789.827 407.152 789.262 407.421 788.776 407.803C788.29 408.184 787.894 408.669 787.618 409.222C787.341 409.775 787.191 410.382 787.177 411C787.177 411.987 787.519 412.944 788.144 413.708C788.769 414.473 789.639 414.997 790.607 415.193L792.028 415.51C792.04 415.557 792.028 415.604 792.052 415.64C791.016 415.648 790.02 416.041 789.257 416.742C788.495 417.444 788.022 418.405 787.929 419.437Z" fill="#E98862"/>
<g opacity="0.25">
<path d="M814.566 411.593C814.543 411.691 814.483 411.777 814.399 411.831C814.314 411.886 814.212 411.905 814.113 411.885L795.849 408.139C795.798 408.13 795.75 408.111 795.706 408.083C795.663 408.055 795.626 408.018 795.597 407.976C795.568 407.933 795.548 407.885 795.538 407.835C795.528 407.784 795.528 407.732 795.538 407.681C795.548 407.631 795.569 407.583 795.598 407.54C795.627 407.498 795.665 407.462 795.708 407.434C795.751 407.406 795.8 407.387 795.851 407.379C795.902 407.37 795.954 407.371 796.004 407.383L814.268 411.129C814.317 411.139 814.365 411.159 814.406 411.187C814.448 411.216 814.484 411.252 814.512 411.294C814.54 411.337 814.559 411.384 814.569 411.434C814.578 411.483 814.578 411.534 814.568 411.584L814.566 411.593Z" fill="#0C0C0C"/>
</g>
<g opacity="0.25">
<path d="M813.137 419.694C813.114 419.792 813.054 419.877 812.969 419.932C812.884 419.986 812.782 420.005 812.683 419.985L792.3 415.805C792.251 415.795 792.203 415.775 792.162 415.747C792.12 415.718 792.084 415.682 792.056 415.64C792.028 415.597 792.009 415.55 791.999 415.5C791.99 415.451 791.99 415.4 792 415.35C792.024 415.252 792.084 415.166 792.169 415.11C792.254 415.054 792.356 415.033 792.456 415.05L812.838 419.23C812.938 419.251 813.026 419.311 813.082 419.396C813.138 419.481 813.159 419.586 813.138 419.686L813.137 419.694Z" fill="#0C0C0C"/>
</g>
<g opacity="0.25">
<path d="M811.639 428.476C811.616 428.574 811.556 428.66 811.471 428.714C811.386 428.769 811.284 428.788 811.185 428.768L794.926 425.434C794.827 425.412 794.74 425.352 794.685 425.267C794.63 425.182 794.611 425.078 794.631 424.979C794.652 424.88 794.71 424.792 794.795 424.736C794.879 424.68 794.982 424.659 795.082 424.678L811.34 428.012C811.44 428.033 811.528 428.092 811.584 428.177C811.64 428.263 811.66 428.367 811.64 428.467L811.639 428.476Z" fill="#0C0C0C"/>
</g>
<path d="M826.131 451.394L984.878 480.082C989.832 480.621 994.843 480.005 999.519 478.282C1004.19 476.559 1008.41 473.776 1011.83 470.152C1015.25 466.527 1017.78 462.16 1019.23 457.392C1020.67 452.624 1021 447.585 1020.17 442.671L997.947 310.571C997.256 306.385 995.745 302.376 993.501 298.774C991.258 295.173 988.325 292.049 984.872 289.583C981.42 287.117 977.514 285.356 973.379 284.402C969.245 283.448 964.963 283.319 960.778 284.023C956.594 284.727 952.589 286.25 948.995 288.504C945.4 290.759 942.285 293.7 939.829 297.16C937.373 300.621 935.624 304.531 934.683 308.669C933.741 312.806 933.625 317.089 934.341 321.271L949.5 412.21L833.11 397.593L826.131 451.394Z" fill="#367CFF"/>
<path d="M984.879 480.67C985.025 480.668 985.165 480.612 985.272 480.513C985.379 480.413 985.445 480.278 985.457 480.132C985.47 479.987 985.428 479.842 985.339 479.726C985.251 479.61 985.123 479.531 984.979 479.504L826.779 450.916L833.612 398.249L949.412 412.793C949.503 412.805 949.596 412.796 949.683 412.765C949.77 412.735 949.849 412.684 949.912 412.617C949.975 412.551 950.022 412.472 950.049 412.385C950.076 412.299 950.082 412.207 950.068 412.117L940.441 354C940.429 353.924 940.402 353.85 940.362 353.784C940.321 353.718 940.268 353.661 940.205 353.616C940.142 353.571 940.071 353.539 939.996 353.522C939.92 353.505 939.842 353.503 939.766 353.517C939.612 353.543 939.475 353.628 939.385 353.755C939.294 353.882 939.258 354.039 939.283 354.193L948.783 411.533L833.183 397.016C833.029 396.998 832.874 397.041 832.752 397.135C832.629 397.23 832.548 397.369 832.527 397.523L825.548 451.323C825.529 451.472 825.568 451.624 825.657 451.745C825.745 451.867 825.878 451.95 826.026 451.977L984.774 480.66C984.809 480.666 984.844 480.67 984.879 480.67Z" fill="#0C0C0C"/>
<path d="M949.593 411.635L949.407 412.796L959.618 414.431L959.804 413.27L949.593 411.635Z" fill="#0C0C0C"/>
<path d="M67.755 905.254L65.791 904.876L96.487 599.845L98.451 600.223L67.755 905.254Z" fill="#494949"/>
<path d="M182.053 905.254L180.089 904.876L210.784 599.845L212.748 600.223L182.053 905.254Z" fill="#494949"/>
<path d="M434.701 905.254L436.665 904.876L405.969 599.845L404.005 600.223L434.701 905.254Z" fill="#494949"/>
<path d="M320.403 905.254L322.367 904.876L291.672 599.845L289.708 600.223L320.403 905.254Z" fill="#494949"/>
<path d="M279.695 465.601L277.713 465.865L295.645 600.17L297.627 599.905L279.695 465.601Z" fill="#494949"/>
<path d="M73.8703 465.599L71.8879 465.864L89.8199 600.168L91.8023 599.903L73.8703 465.599Z" fill="#494949"/>
<path d="M297.456 590.199H96.136C90.7043 590.199 86.301 594.602 86.301 600.034V600.035C86.301 605.467 90.7043 609.87 96.136 609.87H297.456C302.888 609.87 307.291 605.467 307.291 600.035V600.034C307.291 594.602 302.888 590.199 297.456 590.199Z" fill="#292A2E"/>
<path opacity="0.8" d="M297.456 590.199H96.136C90.7043 590.199 86.301 594.602 86.301 600.034V600.035C86.301 605.467 90.7043 609.87 96.136 609.87H297.456C302.888 609.87 307.291 605.467 307.291 600.035V600.034C307.291 594.602 302.888 590.199 297.456 590.199Z" fill="white"/>
<path d="M297.456 610.869H96.136C94.7132 610.869 93.3042 610.589 91.9896 610.044C90.6751 609.5 89.4806 608.702 88.4745 607.695C87.4684 606.689 86.6703 605.495 86.1258 604.18C85.5813 602.866 85.301 601.457 85.301 600.034C85.301 598.611 85.5813 597.202 86.1258 595.888C86.6703 594.573 87.4684 593.379 88.4745 592.372C89.4806 591.366 90.6751 590.568 91.9896 590.024C93.3042 589.479 94.7132 589.199 96.136 589.199H297.456C300.33 589.199 303.086 590.341 305.118 592.372C307.149 594.404 308.291 597.16 308.291 600.034C308.291 602.908 307.149 605.664 305.118 607.695C303.086 609.727 300.33 610.869 297.456 610.869ZM96.136 591.2C94.9758 591.2 93.8269 591.428 92.755 591.872C91.6831 592.316 90.7091 592.967 89.8887 593.788C89.0683 594.608 88.4175 595.582 87.9735 596.654C87.5295 597.726 87.301 598.875 87.301 600.035C87.301 601.195 87.5295 602.344 87.9735 603.416C88.4175 604.488 89.0683 605.462 89.8887 606.282C90.7091 607.103 91.6831 607.753 92.755 608.197C93.8269 608.641 94.9758 608.87 96.136 608.87H297.456C299.799 608.87 302.046 607.939 303.703 606.282C305.36 604.625 306.291 602.378 306.291 600.035C306.291 597.692 305.36 595.445 303.703 593.788C302.046 592.131 299.799 591.2 297.456 591.2H96.136Z" fill="#292A2E"/>
<path d="M407.951 590.199H206.631C201.199 590.199 196.796 594.602 196.796 600.034V600.035C196.796 605.467 201.199 609.87 206.631 609.87H407.951C413.383 609.87 417.786 605.467 417.786 600.035V600.034C417.786 594.602 413.383 590.199 407.951 590.199Z" fill="white"/>
<path d="M407.951 610.869H206.631C205.208 610.869 203.799 610.589 202.485 610.044C201.17 609.5 199.976 608.702 198.969 607.695C197.963 606.689 197.165 605.495 196.621 604.18C196.076 602.866 195.796 601.457 195.796 600.034C195.796 598.611 196.076 597.202 196.621 595.888C197.165 594.573 197.963 593.379 198.969 592.372C199.976 591.366 201.17 590.568 202.485 590.024C203.799 589.479 205.208 589.199 206.631 589.199H407.951C409.374 589.199 410.783 589.479 412.097 590.024C413.412 590.568 414.606 591.366 415.612 592.372C416.618 593.379 417.417 594.573 417.961 595.888C418.506 597.202 418.786 598.611 418.786 600.034C418.786 601.457 418.506 602.866 417.961 604.18C417.417 605.495 416.618 606.689 415.612 607.695C414.606 608.702 413.412 609.5 412.097 610.044C410.783 610.589 409.374 610.869 407.951 610.869ZM206.631 591.2C205.471 591.2 204.322 591.428 203.25 591.872C202.178 592.316 201.204 592.967 200.384 593.788C199.563 594.608 198.912 595.582 198.468 596.654C198.024 597.726 197.796 598.875 197.796 600.035C197.796 601.195 198.024 602.344 198.468 603.416C198.912 604.488 199.563 605.462 200.384 606.282C201.204 607.103 202.178 607.753 203.25 608.197C204.322 608.641 205.471 608.87 206.631 608.87H407.951C409.111 608.87 410.26 608.641 411.332 608.197C412.404 607.753 413.378 607.103 414.198 606.282C415.019 605.462 415.669 604.488 416.113 603.416C416.557 602.344 416.786 601.195 416.786 600.035C416.786 598.875 416.557 597.726 416.113 596.654C415.669 595.582 415.019 594.608 414.198 593.788C413.378 592.967 412.404 592.316 411.332 591.872C410.26 591.428 409.111 591.2 407.951 591.2H206.631Z" fill="#292A2E"/>
<path d="M268.667 465.73H73.4199C70.2276 465.73 67.1444 464.568 64.7459 462.461C62.3473 460.355 60.7972 457.448 60.3849 454.282L47.4699 355.1C47.2285 353.246 47.3854 351.362 47.93 349.574C48.4746 347.785 49.3945 346.133 50.6282 344.729C51.8619 343.324 53.381 342.199 55.0841 341.428C56.7873 340.657 58.6353 340.258 60.5049 340.258H255.752C258.944 340.258 262.027 341.42 264.426 343.526C266.824 345.632 268.374 348.54 268.787 351.705L281.701 450.885C281.943 452.739 281.786 454.623 281.242 456.412C280.698 458.201 279.778 459.853 278.545 461.258C277.311 462.663 275.792 463.789 274.088 464.56C272.385 465.331 270.537 465.73 268.667 465.73Z" fill="#292A2E"/>
<path opacity="0.8" d="M268.667 465.73H73.4199C70.2276 465.73 67.1444 464.568 64.7459 462.461C62.3473 460.355 60.7972 457.448 60.3849 454.282L47.4699 355.1C47.2285 353.246 47.3854 351.362 47.93 349.574C48.4746 347.785 49.3945 346.133 50.6282 344.729C51.8619 343.324 53.381 342.199 55.0841 341.428C56.7873 340.657 58.6353 340.258 60.5049 340.258H255.752C258.944 340.258 262.027 341.42 264.426 343.526C266.824 345.632 268.374 348.54 268.787 351.705L281.701 450.885C281.943 452.739 281.786 454.623 281.242 456.412C280.698 458.201 279.778 459.853 278.545 461.258C277.311 462.663 275.792 463.789 274.088 464.56C272.385 465.331 270.537 465.73 268.667 465.73Z" fill="white"/>
<path d="M268.667 466.73H73.42C69.9869 466.722 66.6732 465.469 64.0937 463.204C61.5141 460.939 59.844 457.814 59.393 454.411L46.479 355.232C46.219 353.237 46.3875 351.21 46.9734 349.285C47.5593 347.36 48.5491 345.583 49.8766 344.071C51.2041 342.559 52.8388 341.348 54.6716 340.519C56.5044 339.689 58.4931 339.26 60.505 339.26H255.752C259.185 339.268 262.499 340.52 265.078 342.786C267.658 345.051 269.327 348.176 269.778 351.579L282.693 450.759C282.953 452.754 282.784 454.781 282.198 456.706C281.612 458.63 280.622 460.408 279.295 461.919C277.967 463.431 276.333 464.642 274.5 465.471C272.667 466.301 270.679 466.73 268.667 466.73ZM60.505 341.26C58.7777 341.26 57.0703 341.629 55.4967 342.341C53.9232 343.053 52.5196 344.093 51.3799 345.391C50.2401 346.689 49.3902 348.215 48.8871 349.867C48.3839 351.519 48.239 353.26 48.462 354.973L61.377 454.153C61.7639 457.075 63.1977 459.758 65.4124 461.703C67.6272 463.648 70.4724 464.724 73.42 464.73H268.667C270.394 464.73 272.102 464.361 273.675 463.649C275.249 462.937 276.652 461.897 277.792 460.599C278.932 459.301 279.782 457.775 280.285 456.123C280.788 454.471 280.933 452.73 280.71 451.017L267.8 351.837C267.413 348.915 265.979 346.233 263.764 344.287C261.55 342.342 258.705 341.267 255.757 341.26H60.505Z" fill="#292A2E"/>
<path d="M279.707 465.73H84.4599C81.2677 465.73 78.1847 464.568 75.7863 462.461C73.3879 460.355 71.838 457.447 71.4259 454.282L58.5109 355.1C58.2695 353.246 58.4264 351.362 58.971 349.574C59.5157 347.785 60.4355 346.133 61.6692 344.729C62.9029 343.324 64.422 342.199 66.1252 341.428C67.8283 340.657 69.6763 340.258 71.5459 340.258H266.793C269.985 340.258 273.068 341.42 275.466 343.526C277.865 345.632 279.415 348.54 279.827 351.705L292.742 450.885C292.984 452.739 292.827 454.623 292.283 456.412C291.738 458.201 290.819 459.853 289.585 461.258C288.351 462.663 286.832 463.789 285.128 464.56C283.425 465.331 281.577 465.73 279.707 465.73Z" fill="white"/>
<path d="M279.707 466.73H84.46C81.027 466.722 77.7134 465.469 75.1341 463.204C72.5547 460.938 70.8847 457.814 70.434 454.411L57.519 355.232C57.2593 353.237 57.4281 351.21 58.0142 349.285C58.6003 347.36 59.5901 345.583 60.9177 344.071C62.2452 342.56 63.88 341.349 65.7127 340.519C67.5455 339.689 69.5342 339.26 71.546 339.26H266.792C270.225 339.268 273.539 340.521 276.118 342.786C278.698 345.051 280.368 348.176 280.819 351.579L293.734 450.759C293.994 452.754 293.825 454.781 293.238 456.706C292.652 458.63 291.662 460.407 290.335 461.919C289.007 463.43 287.373 464.641 285.54 465.471C283.707 466.301 281.719 466.73 279.707 466.73ZM71.546 341.26C69.8184 341.26 68.1106 341.628 66.5367 342.34C64.9628 343.053 63.5589 344.092 62.4188 345.39C61.2787 346.688 60.4286 348.215 59.9253 349.867C59.422 351.52 59.277 353.261 59.5 354.974L72.414 454.153C72.8013 457.075 74.2357 459.758 76.451 461.703C78.6663 463.648 81.512 464.724 84.46 464.73H279.707C281.434 464.73 283.142 464.361 284.715 463.649C286.289 462.937 287.692 461.897 288.832 460.599C289.972 459.301 290.822 457.775 291.325 456.123C291.828 454.471 291.973 452.73 291.75 451.017L278.835 351.837C278.448 348.915 277.014 346.232 274.8 344.287C272.585 342.342 269.74 341.266 266.792 341.26H71.546Z" fill="#292A2E"/>
<path d="M258.186 187.24C258.186 187.24 271.161 177.447 274.376 154.905C276.865 137.451 260.765 148.759 260.765 148.759C260.765 148.759 262.435 136.174 253.265 137.423C244.095 138.672 238.965 151.892 238.965 151.892" fill="#0C0C0C"/>
<path d="M205.875 138.9C205.875 138.9 160.381 143.778 176.827 205.426L180.852 205.695L189.024 206.243" fill="#0C0C0C"/>
<path d="M250.566 269.8C250.366 269.774 248.147 306.6 205.361 303.393C175.741 301.174 165.179 269.748 164.501 269.748C167.694 269.069 171.641 268.039 173.209 267.685C176.628 266.892 179.724 265.076 182.085 262.48C184.447 259.884 185.962 256.631 186.429 253.153C187.295 247.933 185.829 221.225 186.278 215.944L231.745 226.1C231.109 237.255 226.663 263.116 242.245 267.693C244.841 268.445 247.634 269.142 250.566 269.8Z" fill="#E98862"/>
<path opacity="0.52" d="M232.382 257.119C231.67 254.824 231.212 252.458 231.015 250.063C230.516 244.597 230.617 239.094 231.315 233.65C222.074 232.403 213.368 228.589 206.186 222.641C205.341 225.759 200.698 239.382 201.986 242.346C204.411 247.947 215.83 257.119 232.382 257.119Z" fill="#0C0C0C"/>
<path d="M223 249.83C205.063 248.222 183.594 236.888 183.284 212.54L183 190.57C182.69 166.221 195.228 146.32 218.153 146.029C241.078 145.737 258.465 165.258 258.775 189.606L258.898 199.333C258.883 202.673 258.64 206.008 258.17 209.315C256.994 218.065 255.17 231.368 249.232 240.368C243.628 248.864 234.458 250.858 223 249.83Z" fill="#E98862"/>
<path d="M231.32 227.574C235.022 227.742 238.712 227.037 242.091 225.517C242.161 225.487 242.224 225.444 242.278 225.39C242.331 225.335 242.373 225.271 242.401 225.201C242.429 225.13 242.443 225.055 242.443 224.979C242.442 224.903 242.426 224.828 242.396 224.758C242.366 224.688 242.323 224.625 242.269 224.572C242.215 224.519 242.15 224.477 242.08 224.448C242.009 224.42 241.934 224.406 241.858 224.407C241.782 224.407 241.707 224.423 241.637 224.453C234.356 227.553 227.745 227.103 222.519 223.139C222.414 223.055 222.304 222.977 222.191 222.905C222.06 222.843 221.91 222.833 221.771 222.877C221.633 222.92 221.516 223.014 221.443 223.14C221.371 223.266 221.348 223.414 221.38 223.556C221.412 223.698 221.496 223.822 221.615 223.905C221.657 223.932 221.725 223.985 221.815 224.057C224.562 226.15 227.872 227.375 231.32 227.574Z" fill="#0C0C0C"/>
<path d="M231.148 233.06C231.817 233.101 232.488 233.085 233.154 233.012C233.304 232.992 233.439 232.914 233.532 232.796C233.625 232.677 233.668 232.527 233.652 232.377C233.636 232.227 233.562 232.089 233.446 231.993C233.33 231.896 233.181 231.849 233.031 231.861C229.025 232.287 227.112 230.451 227.031 230.373C226.922 230.269 226.776 230.212 226.626 230.214C226.475 230.216 226.331 230.277 226.224 230.383C226.117 230.489 226.056 230.633 226.054 230.784C226.051 230.935 226.108 231.08 226.211 231.19C227.592 232.365 229.336 233.025 231.148 233.06Z" fill="#0C0C0C"/>
<path d="M251.207 204.015C252.767 204.015 254.031 202.751 254.031 201.191C254.031 199.631 252.767 198.367 251.207 198.367C249.648 198.367 248.383 199.631 248.383 201.191C248.383 202.751 249.648 204.015 251.207 204.015Z" fill="#0C0C0C"/>
<path d="M223.618 202.283C225.178 202.283 226.442 201.019 226.442 199.459C226.442 197.899 225.178 196.635 223.618 196.635C222.059 196.635 220.794 197.899 220.794 199.459C220.794 201.019 222.059 202.283 223.618 202.283Z" fill="#0C0C0C"/>
<path d="M184.8 219.939C177.834 220.028 172.091 212.646 172 205.68C171.909 198.714 177.511 194.799 184.478 194.71L188.127 199.333L190.788 219.863L184.8 219.939Z" fill="#E98862"/>
<path d="M191.732 208.744C191.732 208.744 194.084 174.291 204.532 172.164C211.49 170.747 228.363 180.616 243.992 177.636C250.829 176.336 257.32 178.024 257.98 181.254C258.242 182.533 262.501 164.154 251.794 150.209C243.269 139.109 215.372 135.969 202.68 139.609C167.536 149.69 183.044 196.226 183.044 196.226L184.611 208.104L191.732 208.744Z" fill="#0C0C0C"/>
<path d="M235.532 219.444H235.576C237.821 219.421 241.585 219.133 241.57 217.453C241.555 216.062 237.594 201.078 237.142 199.374C237.103 199.227 237.008 199.102 236.877 199.026C236.746 198.95 236.589 198.929 236.443 198.967C236.296 199.006 236.171 199.102 236.095 199.233C236.018 199.364 235.997 199.52 236.036 199.667C237.796 206.303 240.416 216.519 240.426 217.467C240.209 217.867 237.89 218.278 235.566 218.302C235.418 218.302 235.275 218.36 235.168 218.463C235.061 218.567 234.999 218.708 234.994 218.857C234.99 219.006 235.044 219.15 235.144 219.26C235.245 219.37 235.384 219.436 235.532 219.445V219.444Z" fill="#0C0C0C"/>
<path d="M243.192 185.879C245.552 185.23 248.043 185.23 250.402 185.879C251.561 186.191 252.667 186.675 253.682 187.315C254.686 187.942 255.606 188.693 256.421 189.551C256.572 189.704 256.657 189.909 256.661 190.123C256.664 190.337 256.584 190.545 256.438 190.702C256.292 190.859 256.092 190.954 255.878 190.967C255.664 190.98 255.453 190.909 255.289 190.771L255.239 190.727C254.484 190.028 253.644 189.427 252.739 188.938C251.851 188.452 250.895 188.103 249.902 187.903C247.949 187.494 245.921 187.607 244.025 188.231L243.946 188.259C243.791 188.314 243.627 188.337 243.463 188.329C243.299 188.32 243.138 188.279 242.99 188.208C242.842 188.138 242.709 188.038 242.599 187.916C242.489 187.794 242.405 187.651 242.35 187.496C242.295 187.342 242.271 187.177 242.28 187.013C242.289 186.849 242.33 186.689 242.4 186.54C242.471 186.392 242.571 186.259 242.693 186.149C242.815 186.039 242.957 185.955 243.112 185.9C243.139 185.894 243.167 185.886 243.192 185.879Z" fill="#0C0C0C"/>
<path d="M226.484 187.3C224.689 186.428 222.694 186.045 220.703 186.191C219.693 186.257 218.699 186.475 217.754 186.839C216.793 187.204 215.882 187.688 215.041 188.28L214.987 188.315C214.807 188.437 214.586 188.483 214.372 188.444C214.158 188.405 213.968 188.284 213.842 188.106C213.716 187.929 213.665 187.709 213.699 187.494C213.734 187.279 213.851 187.086 214.026 186.957C214.949 186.215 215.961 185.593 217.039 185.105C218.131 184.606 219.291 184.274 220.481 184.119C222.906 183.79 225.375 184.121 227.627 185.077C227.932 185.21 228.172 185.458 228.294 185.767C228.416 186.077 228.41 186.422 228.277 186.727C228.145 187.032 227.896 187.272 227.587 187.394C227.277 187.516 226.932 187.51 226.627 187.377C226.603 187.367 226.58 187.356 226.557 187.344L226.484 187.3Z" fill="#0C0C0C"/>
<path d="M239.834 162.16C244.991 161.083 247.886 154.056 246.3 146.466C244.714 138.876 239.248 133.596 234.091 134.674C228.934 135.751 226.039 142.778 227.625 150.368C229.211 157.958 234.677 163.238 239.834 162.16Z" fill="#0C0C0C"/>
<path d="M527.448 852.415C527.448 852.415 532.81 880.209 558.833 881.758C584.856 883.307 579.213 904.037 579.213 904.037H479.768V854.353L527.448 852.415Z" fill="#367CFF"/>
<path d="M338.261 834.867C338.261 834.867 330.8 862.173 353.47 875.05C376.14 887.927 361.923 904.037 361.923 904.037L272.691 860.137L294.622 815.556L338.261 834.867Z" fill="#367CFF"/>
<path d="M282.993 827.154L358.242 589.764H221.842C194.442 589.764 183.021 566.529 183.021 539.131C183.021 511.733 209.956 487.715 237.354 487.715H421.444C438.155 487.715 456.893 497.935 466.065 511.905C475.237 525.875 472.758 547.523 466.113 562.856L345.613 855.523" fill="#262626"/>
<path opacity="0.8" d="M282.993 827.154L358.242 589.764H221.842C194.442 589.764 183.021 566.529 183.021 539.131C183.021 511.733 209.956 487.715 237.354 487.715H421.444C438.155 487.715 456.893 497.935 466.065 511.905C475.237 525.875 472.758 547.523 466.113 562.856L345.613 855.523" fill="#0A0A0A"/>
<path d="M474.05 878.226L348.231 589.764L183.022 589.753C144.31 586.719 126.582 565.503 127.145 538.111C127.701 511.066 141.395 484.354 168.319 484.354H390.987C410.907 484.763 426.579 506.777 433.969 525.278L538.569 860.566" fill="#262626"/>
<path d="M115.875 484.685C115.875 484.685 108.538 532.531 120.168 559.132C134.687 592.342 189.115 589.754 189.115 589.754L186.048 484.354L115.875 484.685Z" fill="#262626"/>
<path d="M438.7 483.744L322 459.561C317.137 458.553 312.607 456.336 308.829 453.113C305.05 449.89 302.145 445.767 300.383 441.124L254.483 320.17C253.107 316.544 252.459 312.683 252.575 308.807C252.692 304.931 253.57 301.116 255.161 297.579C256.752 294.043 259.024 290.854 261.847 288.195C264.67 285.537 267.989 283.46 271.615 282.084C275.24 280.709 279.101 280.06 282.977 280.177C286.854 280.293 290.669 281.172 294.205 282.762C297.742 284.353 300.931 286.625 303.589 289.448C306.248 292.271 308.324 295.59 309.7 299.216L349.852 405.016L450.686 425.91C450.686 425.91 440.725 484.162 438.7 483.744Z" fill="#367CFF"/>
<path d="M303.725 350.886C302.377 366.718 292.825 465.496 291.525 484.997H115.951C114.942 467.408 111.667 392.731 107.842 358.336C104.19 325.515 102.866 306.785 107.072 296.585C114.49 278.596 133.053 272.123 149.042 269.958C158.806 268.636 173.491 267.688 173.491 267.688C173.491 267.688 174.734 292.841 204.382 294.241C244.742 296.141 242.047 267.688 242.246 267.688C248.785 267.688 284.375 272.443 293.274 278.244C305.843 286.436 309.558 297.601 309.705 307.858C309.874 319.668 305.256 332.929 303.725 350.886Z" fill="#367CFF"/>
<path d="M296.822 431.6C296.808 431.601 296.794 431.601 296.78 431.6C296.648 431.589 296.526 431.526 296.44 431.425C296.354 431.324 296.312 431.193 296.323 431.061L300.881 376.306C300.885 376.24 300.902 376.175 300.932 376.116C300.961 376.057 301.003 376.005 301.053 375.962C301.104 375.919 301.162 375.887 301.226 375.868C301.289 375.849 301.355 375.843 301.421 375.85C301.553 375.861 301.675 375.924 301.761 376.025C301.846 376.126 301.888 376.257 301.877 376.389L297.32 431.144C297.309 431.268 297.252 431.384 297.16 431.469C297.068 431.553 296.947 431.6 296.822 431.6Z" fill="#0C0C0C"/>
<path d="M380.446 464.459L418.971 346.036C419.648 343.955 420.966 342.142 422.737 340.856C424.508 339.57 426.64 338.877 428.828 338.877H585.78C587.416 338.877 589.029 339.264 590.487 340.007C591.944 340.75 593.205 341.828 594.167 343.151C595.128 344.475 595.763 346.008 596.018 347.624C596.274 349.24 596.143 350.893 595.637 352.449L557.112 470.872C556.435 472.953 555.117 474.766 553.346 476.052C551.576 477.338 549.444 478.031 547.255 478.031H390.3C388.664 478.03 387.052 477.643 385.595 476.9C384.138 476.156 382.877 475.079 381.916 473.755C380.955 472.432 380.321 470.899 380.065 469.284C379.81 467.668 379.94 466.015 380.446 464.459Z" fill="#292A2E"/>
<path d="M380.446 464.459L418.971 346.036C419.648 343.955 420.966 342.142 422.737 340.856C424.508 339.57 426.64 338.877 428.828 338.877H585.78C587.416 338.877 589.029 339.264 590.487 340.007C591.944 340.75 593.205 341.828 594.167 343.151C595.128 344.475 595.763 346.008 596.018 347.624C596.274 349.24 596.143 350.893 595.637 352.449L557.112 470.872C556.435 472.953 555.117 474.766 553.346 476.052C551.576 477.338 549.444 478.031 547.255 478.031H390.3C388.664 478.03 387.052 477.643 385.595 476.9C384.138 476.156 382.877 475.079 381.916 473.755C380.955 472.432 380.321 470.899 380.065 469.284C379.81 467.668 379.94 466.015 380.446 464.459Z" fill="#292A2E"/>
<path d="M411.873 468.429H306.809C304.191 468.429 302.069 470.551 302.069 473.169V473.291C302.069 475.909 304.191 478.031 306.809 478.031H411.873C414.491 478.031 416.613 475.909 416.613 473.291V473.169C416.613 470.551 414.491 468.429 411.873 468.429Z" fill="#292A2E"/>
<path d="M411.873 468.429H306.809C304.191 468.429 302.069 470.551 302.069 473.169V473.291C302.069 475.909 304.191 478.031 306.809 478.031H411.873C414.491 478.031 416.613 475.909 416.613 473.291V473.169C416.613 470.551 414.491 468.429 411.873 468.429Z" fill="#292A2E"/>
<path d="M488.041 430.692C497.132 430.692 504.502 423.322 504.502 414.231C504.502 405.14 497.132 397.77 488.041 397.77C478.95 397.77 471.58 405.14 471.58 414.231C471.58 423.322 478.95 430.692 488.041 430.692Z" fill="white"/>
<path d="M371.665 436.718L345.443 427.528L349.208 427.267C350.421 427.159 351.549 426.594 352.361 425.687C353.174 424.78 353.612 423.598 353.587 422.38C353.552 421.752 353.39 421.137 353.11 420.574C352.83 420.011 352.438 419.511 351.958 419.104C351.478 418.697 350.92 418.392 350.319 418.208C349.717 418.024 349.084 417.964 348.459 418.033L302.069 422.962L303.269 437.87C303.644 442.5 305.392 446.913 308.291 450.543C311.19 454.174 315.106 456.855 319.539 458.245L339.628 464.503C340.666 464.848 341.791 464.824 342.813 464.435C343.835 464.046 344.691 463.317 345.237 462.369C345.712 461.503 345.897 460.508 345.767 459.53C345.636 458.551 345.196 457.64 344.51 456.929C344.554 456.897 344.592 456.857 344.62 456.811C344.648 456.764 344.667 456.712 344.674 456.658C344.682 456.604 344.678 456.549 344.664 456.497C344.649 456.444 344.624 456.395 344.59 456.353L348.29 457.514C349.445 457.902 350.704 457.837 351.813 457.332C352.922 456.827 353.797 455.92 354.263 454.794C354.643 453.773 354.651 452.65 354.286 451.624C353.92 450.597 353.204 449.732 352.263 449.182C352.306 449.159 352.345 449.127 352.377 449.09L353.899 449.568C354.937 449.913 356.062 449.889 357.084 449.5C358.106 449.111 358.962 448.382 359.508 447.434C360.084 446.383 360.231 445.15 359.917 443.993C359.604 442.836 358.855 441.846 357.827 441.229C357.836 441.198 357.841 441.167 357.842 441.135L368.761 444.963C369.854 445.346 371.055 445.279 372.099 444.777C373.143 444.275 373.945 443.379 374.329 442.285C374.712 441.192 374.645 439.991 374.143 438.947C373.641 437.903 372.744 437.101 371.651 436.718H371.665Z" fill="#E98862"/>
<path opacity="0.2" d="M357.426 441.562C357.375 441.562 357.325 441.553 357.277 441.536L346.714 437.7C346.606 437.66 346.518 437.579 346.469 437.474C346.421 437.37 346.416 437.25 346.456 437.142C346.495 437.033 346.577 436.945 346.681 436.897C346.786 436.848 346.906 436.843 347.014 436.883L357.576 440.723C357.672 440.758 357.753 440.825 357.804 440.914C357.856 441.003 357.874 441.106 357.856 441.207C357.839 441.308 357.786 441.399 357.708 441.465C357.629 441.531 357.53 441.567 357.428 441.567L357.426 441.562Z" fill="#0A0A0A"/>
<path opacity="0.2" d="M352.086 449.242C352.037 449.242 351.988 449.234 351.941 449.217L343.615 446.263C343.561 446.244 343.512 446.214 343.469 446.176C343.427 446.138 343.392 446.092 343.368 446.04C343.343 445.988 343.329 445.933 343.326 445.875C343.323 445.818 343.331 445.761 343.35 445.707C343.37 445.654 343.399 445.604 343.437 445.562C343.476 445.519 343.522 445.485 343.573 445.46C343.625 445.436 343.681 445.421 343.738 445.418C343.795 445.416 343.852 445.424 343.906 445.443L352.232 448.397C352.329 448.431 352.41 448.499 352.462 448.587C352.514 448.676 352.533 448.78 352.515 448.881C352.498 448.982 352.445 449.074 352.367 449.14C352.288 449.206 352.189 449.242 352.086 449.242Z" fill="#0A0A0A"/>
<path opacity="0.2" d="M344.247 457.034C344.194 457.034 344.141 457.024 344.091 457.005L340.191 455.518C340.135 455.499 340.084 455.47 340.04 455.431C339.996 455.392 339.96 455.345 339.935 455.291C339.91 455.238 339.896 455.181 339.894 455.122C339.891 455.063 339.901 455.005 339.922 454.95C339.943 454.895 339.975 454.845 340.016 454.803C340.056 454.761 340.105 454.727 340.159 454.704C340.214 454.681 340.272 454.67 340.33 454.67C340.389 454.67 340.447 454.683 340.501 454.706L344.401 456.193C344.496 456.229 344.575 456.298 344.624 456.386C344.674 456.475 344.691 456.578 344.673 456.678C344.654 456.778 344.602 456.868 344.524 456.933C344.446 456.998 344.348 457.034 344.246 457.034H344.247Z" fill="#0A0A0A"/>
<path d="M322.6 414.14L212.6 414.066L170.987 312.553L108.909 338.653L160.83 459.132L161.338 460.332C163.878 466.188 168.157 471.122 173.595 474.465C179.032 477.809 185.366 479.4 191.738 479.024L324.266 471.194L322.6 414.14Z" fill="#367CFF"/>
<path d="M189.914 479.576C183.747 479.565 177.717 477.758 172.561 474.376C167.405 470.993 163.345 466.182 160.879 460.53L160.37 459.33L116.13 356.671L117.048 356.276L161.798 460.136C164.309 465.889 168.522 470.734 173.869 474.022C179.217 477.309 185.442 478.88 191.709 478.524L323.752 470.724L322.116 414.641L212.267 414.568L180.267 336.515L181.192 336.136L212.936 413.568L323.085 413.642L324.778 471.666L324.293 471.694L191.766 479.524C191.147 479.559 190.53 479.576 189.914 479.576Z" fill="#0C0C0C"/>
<path d="M850.998 487.613L849.008 487.814L891.165 905.164L893.155 904.963L850.998 487.613Z" fill="#494949"/>
<path d="M67.5622 487.618L25.3757 904.965L27.3656 905.166L69.552 487.82L67.5622 487.618Z" fill="#494949"/>
<path d="M241.86 487.618L199.674 904.964L201.664 905.165L243.85 487.819L241.86 487.618Z" fill="#494949"/>
<path d="M1025.3 487.612L1023.31 487.813L1065.46 905.163L1067.45 904.962L1025.3 487.612Z" fill="#494949"/>
<path d="M1063.31 479.522H32.309C27.7836 479.522 24.115 483.19 24.115 487.715C24.115 492.241 27.7836 495.909 32.309 495.909H1063.31C1067.84 495.909 1071.51 492.241 1071.51 487.715C1071.51 483.19 1067.84 479.522 1063.31 479.522Z" fill="#292A2E"/>
<path opacity="0.8" d="M1063.31 479.522H32.309C27.7836 479.522 24.115 483.19 24.115 487.715C24.115 492.241 27.7836 495.909 32.309 495.909H1063.31C1067.84 495.909 1071.51 492.241 1071.51 487.715C1071.51 483.19 1067.84 479.522 1063.31 479.522Z" fill="white"/>
<path d="M1063.31 496.909H32.3131C31.0977 496.922 29.8919 496.693 28.7654 496.237C27.6388 495.781 26.614 495.105 25.75 494.25C24.8861 493.395 24.2003 492.378 23.7322 491.256C23.2642 490.134 23.0232 488.931 23.0232 487.715C23.0232 486.5 23.2642 485.297 23.7322 484.175C24.2003 483.053 24.8861 482.035 25.75 481.181C26.614 480.326 27.6388 479.65 28.7654 479.194C29.8919 478.738 31.0977 478.509 32.3131 478.522H1063.31C1065.73 478.547 1068.05 479.527 1069.75 481.248C1071.46 482.97 1072.41 485.294 1072.41 487.715C1072.41 490.137 1071.46 492.461 1069.75 494.183C1068.05 495.904 1065.73 496.884 1063.31 496.909ZM32.3131 480.522C31.3613 480.511 30.4167 480.689 29.5341 481.045C28.6515 481.401 27.8484 481.93 27.1714 482.599C26.4944 483.268 25.9569 484.065 25.59 484.943C25.2232 485.821 25.0343 486.764 25.0343 487.715C25.0343 488.667 25.2232 489.61 25.59 490.488C25.9569 491.366 26.4944 492.163 27.1714 492.832C27.8484 493.501 28.6515 494.029 29.5341 494.386C30.4167 494.742 31.3613 494.92 32.3131 494.909H1063.31C1065.21 494.887 1067.01 494.119 1068.35 492.772C1069.68 491.426 1070.42 489.609 1070.42 487.715C1070.42 485.822 1069.68 484.005 1068.35 482.659C1067.01 481.312 1065.21 480.544 1063.31 480.522H32.3131Z" fill="#292A2E"/>
<path d="M1063.31 479.522H213.27C208.745 479.522 205.076 483.19 205.076 487.715C205.076 492.241 208.745 495.909 213.27 495.909H1063.31C1067.84 495.909 1071.51 492.241 1071.51 487.715C1071.51 483.19 1067.84 479.522 1063.31 479.522Z" fill="white"/>
<path d="M1063.31 496.909H213.269C210.847 496.884 208.533 495.904 206.83 494.183C205.126 492.461 204.171 490.137 204.171 487.715C204.171 485.294 205.126 482.97 206.83 481.248C208.533 479.527 210.847 478.547 213.269 478.522H1063.31C1065.73 478.547 1068.05 479.527 1069.75 481.248C1071.46 482.97 1072.41 485.294 1072.41 487.715C1072.41 490.137 1071.46 492.461 1069.75 494.183C1068.05 495.904 1065.73 496.884 1063.31 496.909ZM213.269 480.522C211.376 480.544 209.568 481.312 208.237 482.659C206.906 484.005 206.16 485.822 206.16 487.715C206.16 489.609 206.906 491.426 208.237 492.772C209.568 494.119 211.376 494.887 213.269 494.909H1063.31C1065.21 494.887 1067.01 494.119 1068.34 492.772C1069.68 491.426 1070.42 489.609 1070.42 487.715C1070.42 485.822 1069.68 484.005 1068.34 482.659C1067.01 481.312 1065.21 480.544 1063.31 480.522H213.269Z" fill="#292A2E"/>
</svg>
