<svg width="643" height="599" viewBox="0 0 643 599" fill="none" xmlns="http://www.w3.org/2000/svg">
<g opacity="0.2">
<mask id="path-1-outside-1_126_6774" maskUnits="userSpaceOnUse" x="-71.7969" y="68.7593" width="644.246" height="477.526" fill="black">
<rect fill="white" x="-71.7969" y="68.7593" width="644.246" height="477.526"/>
<path d="M88.6623 148.452L88.1538 148.418L-7.60147 499.182L544.01 442.434L544.631 442.37L517.025 176.741L516.971 176.218L88.6623 148.452ZM282.597 327.665L-5.75728 497.157L88.9531 150.223L282.597 327.665ZM283.679 328.473L541.534 441.434L-3.97983 497.557L283.679 328.473ZM283.704 326.991L90.3463 149.807L514.489 177.302L283.704 326.991ZM543.216 440.812L284.947 327.669L515.889 177.879L543.216 440.812Z"/>
</mask>
<path d="M88.6623 148.452L88.1538 148.418L-7.60147 499.182L544.01 442.434L544.631 442.37L517.025 176.741L516.971 176.218L88.6623 148.452ZM282.597 327.665L-5.75728 497.157L88.9531 150.223L282.597 327.665ZM283.679 328.473L541.534 441.434L-3.97983 497.557L283.679 328.473ZM283.704 326.991L90.3463 149.807L514.489 177.302L283.704 326.991ZM543.216 440.812L284.947 327.669L515.889 177.879L543.216 440.812Z" fill="#367CFF"/>
<path d="M88.6623 148.452L88.4604 151.445L88.4682 151.446L88.6623 148.452ZM88.1538 148.418L88.3557 145.425L85.9063 145.259L85.2598 147.628L88.1538 148.418ZM-7.60147 499.182L-10.4956 498.392L-11.6482 502.614L-7.29446 502.166L-7.60147 499.182ZM544.01 442.434L544.317 445.418L544.317 445.418L544.01 442.434ZM544.631 442.37L544.939 445.354L547.926 445.046L547.615 442.06L544.631 442.37ZM517.025 176.741L514.041 177.051L514.041 177.051L517.025 176.741ZM516.971 176.218L519.955 175.909L519.694 173.389L517.165 173.225L516.971 176.218ZM282.597 327.665L284.117 330.252L287.616 328.195L284.624 325.454L282.597 327.665ZM-5.75728 497.157L-8.65138 496.367L-10.593 503.479L-4.23708 499.744L-5.75728 497.157ZM88.9531 150.223L90.9799 148.011L87.3542 144.689L86.0591 149.433L88.9531 150.223ZM283.679 328.473L284.883 325.725L283.48 325.11L282.159 325.887L283.679 328.473ZM541.534 441.434L541.841 444.418L553.164 443.253L542.738 438.686L541.534 441.434ZM-3.97983 497.557L-5.50005 494.971L-3.67281 500.542L-3.97983 497.557ZM283.704 326.991L281.677 329.202L283.388 330.771L285.336 329.508L283.704 326.991ZM90.3463 149.807L90.5404 146.813L82.0373 146.262L88.3195 152.019L90.3463 149.807ZM514.489 177.302L516.121 179.819L523.715 174.894L514.683 174.308L514.489 177.302ZM543.216 440.812L542.012 443.56L546.733 445.628L546.2 440.502L543.216 440.812ZM284.947 327.669L283.314 325.152L278.642 328.182L283.743 330.416L284.947 327.669ZM515.889 177.879L518.873 177.569L518.367 172.696L514.257 175.362L515.889 177.879ZM88.8642 145.459L88.3557 145.425L87.952 151.411L88.4604 151.445L88.8642 145.459ZM85.2598 147.628L-10.4956 498.392L-4.70737 499.972L91.0479 149.208L85.2598 147.628ZM-7.29446 502.166L544.317 445.418L543.703 439.45L-7.90848 496.197L-7.29446 502.166ZM544.317 445.418L544.939 445.354L544.324 439.386L543.702 439.45L544.317 445.418ZM547.615 442.06L520.009 176.431L514.041 177.051L541.648 442.68L547.615 442.06ZM520.009 176.431L519.955 175.909L513.987 176.528L514.041 177.051L520.009 176.431ZM517.165 173.225L88.8564 145.458L88.4682 151.446L516.777 179.212L517.165 173.225ZM281.077 325.079L-7.27749 494.571L-4.23708 499.744L284.117 330.252L281.077 325.079ZM-2.86319 497.947L91.8472 151.013L86.0591 149.433L-8.65138 496.367L-2.86319 497.947ZM86.9264 152.435L280.57 329.877L284.624 325.454L90.9799 148.011L86.9264 152.435ZM282.476 331.221L540.331 444.181L542.738 438.686L284.883 325.725L282.476 331.221ZM541.227 438.449L-4.28686 494.573L-3.67281 500.542L541.841 444.418L541.227 438.449ZM-2.45962 500.144L285.2 331.059L282.159 325.887L-5.50005 494.971L-2.45962 500.144ZM285.73 324.779L92.3731 147.595L88.3195 152.019L281.677 329.202L285.73 324.779ZM90.1522 152.8L514.295 180.296L514.683 174.308L90.5404 146.813L90.1522 152.8ZM512.856 174.785L282.071 324.474L285.336 329.508L516.121 179.819L512.856 174.785ZM544.42 438.064L286.151 324.921L283.743 330.416L542.012 443.56L544.42 438.064ZM286.579 330.186L517.522 180.396L514.257 175.362L283.314 325.152L286.579 330.186ZM512.905 178.189L540.232 441.122L546.2 440.502L518.873 177.569L512.905 178.189Z" fill="#367CFF" mask="url(#path-1-outside-1_126_6774)"/>
</g>
<path d="M587.543 169.582C589.306 182.097 588.009 194.853 583.765 206.761C579.52 218.668 572.454 229.373 563.169 237.96C553.884 246.547 542.657 252.761 530.448 256.071C518.238 259.382 505.409 259.69 493.056 256.969C487.262 255.691 481.635 253.752 476.286 251.188C466.066 246.309 457.021 239.282 449.771 230.588L449.769 230.58C442.033 221.277 436.561 210.308 433.785 198.535C431.008 186.762 431.002 174.505 433.767 162.727C436.532 150.949 441.992 139.971 449.719 130.656C457.446 121.34 467.23 113.941 478.3 109.04C489.371 104.138 501.428 101.868 513.523 102.407C525.618 102.946 537.423 106.28 548.009 112.147C558.595 118.014 567.675 126.254 574.534 136.22C581.394 146.185 585.846 157.605 587.542 169.582L587.543 169.582Z" fill="white"/>
<path opacity="0.09" d="M587.543 169.582C589.306 182.097 588.009 194.853 583.765 206.761C579.52 218.668 572.454 229.373 563.169 237.96C553.884 246.547 542.657 252.761 530.448 256.071C518.238 259.382 505.409 259.69 493.056 256.969C487.262 255.691 481.635 253.752 476.286 251.188C466.066 246.309 457.021 239.282 449.771 230.588L449.769 230.58C442.033 221.277 436.561 210.308 433.785 198.535C431.008 186.762 431.002 174.505 433.767 162.727C436.532 150.949 441.992 139.971 449.719 130.656C457.446 121.34 467.23 113.941 478.3 109.04C489.371 104.138 501.428 101.868 513.523 102.407C525.618 102.946 537.423 106.28 548.009 112.147C558.595 118.014 567.675 126.254 574.534 136.22C581.394 146.185 585.846 157.605 587.542 169.582L587.543 169.582Z" fill="#367CFF"/>
<path d="M517.588 118.638C517.588 118.638 536.051 115.521 534.301 142.036L532.587 142.434L529.106 143.242" fill="#0C0C0C"/>
<path d="M506.49 174.567C506.574 174.543 509.784 190.301 528.069 186.297C540.728 183.527 543.37 169.319 543.663 169.277C542.242 169.18 539.858 169.081 539.2 168.843C537.032 168.047 534.38 167.275 533.177 163.458C532.484 161.258 531.487 149.643 530.969 147.391L511.949 154.553C512.905 159.328 516.406 170.216 509.954 173.145C508.88 173.631 507.716 174.102 506.49 174.567Z" fill="#E98862"/>
<path opacity="0.52" d="M513.569 167.98C513.736 166.946 513.79 165.897 513.729 164.851C513.611 162.462 513.231 160.093 512.597 157.786C516.513 156.682 520.04 154.504 522.779 151.497C523.334 152.789 526.173 158.387 525.795 159.745C525.09 162.311 520.719 166.968 513.569 167.98Z" fill="#0C0C0C"/>
<path d="M517.527 164.375C525.138 162.425 533.59 156.047 532.019 145.549L530.602 136.078C529.031 125.582 522.237 117.899 512.348 119.38C502.455 120.858 496.335 130.476 497.905 140.972L498.533 145.165C498.774 146.602 499.112 148.02 499.545 149.41C500.664 153.092 502.38 158.688 505.567 162.143C508.576 165.405 512.664 165.62 517.527 164.375Z" fill="#E98862"/>
<path d="M531.883 148.841C534.89 148.39 536.846 144.812 536.397 141.809C535.948 138.806 533.262 137.514 530.256 137.964L529.008 140.208L529.299 149.227L531.883 148.841Z" fill="#E98862"/>
<path d="M500.518 152.49C501.174 153.032 501.955 153.401 502.791 153.564C503.626 153.727 504.489 153.678 505.301 153.423C507.039 152.876 508.35 153.391 509.808 152.976C511.031 152.627 511.143 152.013 513.246 151.501C521.366 149.526 527.432 147.892 525.965 137.529L530.347 131.947C530.347 131.947 537.855 160.038 523.105 166.629C514.041 170.678 504.989 171.442 502.23 162.748C499.988 155.685 500.518 152.49 500.518 152.49Z" fill="#0C0C0C"/>
<path d="M503.326 145.829C503.996 145.708 504.44 145.067 504.319 144.398C504.197 143.729 503.556 143.286 502.887 143.407C502.217 143.529 501.773 144.169 501.894 144.838C502.016 145.507 502.657 145.951 503.326 145.829Z" fill="#0C0C0C"/>
<path d="M514.114 143.639C514.784 143.517 515.228 142.877 515.107 142.208C514.986 141.539 514.344 141.095 513.675 141.217C513.006 141.338 512.561 141.979 512.683 142.648C512.804 143.317 513.445 143.76 514.114 143.639Z" fill="#0C0C0C"/>
<path d="M528.115 144.51C528.115 144.51 524.692 129.853 520.044 129.67C516.948 129.548 510.374 134.976 503.435 134.788C500.4 134.706 497.723 135.888 497.665 137.325C497.641 137.893 494.448 133.467 498.084 126.717C500.977 121.343 512.918 117.813 518.637 118.49C534.476 120.365 530.982 138.517 530.982 138.517L531.138 143.736L528.115 144.51Z" fill="#0C0C0C"/>
<path d="M532.77 131.346C537.186 130.545 540.117 126.319 539.317 121.907C538.516 117.495 534.287 114.568 529.871 115.369C525.455 116.17 522.524 120.396 523.324 124.808C524.125 129.22 528.354 132.148 532.77 131.346Z" fill="#0C0C0C"/>
<g opacity="0.52">
<path d="M509.868 152.474L509.849 152.477C508.881 152.624 507.241 152.764 507.129 152.041C507.038 151.441 507.695 144.718 507.77 143.952C507.777 143.886 507.809 143.826 507.86 143.784C507.912 143.742 507.977 143.722 508.043 143.728C508.109 143.735 508.169 143.767 508.211 143.818C508.253 143.869 508.273 143.935 508.267 144.001C507.974 146.979 507.561 151.557 507.622 151.963C507.743 152.12 508.771 152.134 509.773 151.982C509.838 151.97 509.905 151.983 509.96 152.02C510.015 152.057 510.053 152.115 510.065 152.18C510.078 152.244 510.064 152.312 510.027 152.366C509.99 152.421 509.933 152.459 509.868 152.471L509.868 152.474Z" fill="#0C0C0C"/>
</g>
<path d="M504.594 140.098C503.545 139.985 502.485 140.155 501.525 140.592C501.052 140.803 500.613 141.085 500.224 141.427C499.837 141.763 499.495 142.146 499.205 142.567C499.154 142.634 499.13 142.718 499.141 142.801C499.151 142.884 499.194 142.96 499.261 143.011C499.327 143.063 499.411 143.086 499.494 143.075C499.578 143.065 499.653 143.022 499.705 142.956L499.721 142.936C499.998 142.578 500.319 142.256 500.676 141.978C501.027 141.702 501.418 141.48 501.835 141.321C502.658 141 503.551 140.901 504.424 141.035L504.457 141.041C504.519 141.053 504.583 141.053 504.645 141.04C504.707 141.027 504.765 141.002 504.817 140.966C504.869 140.93 504.914 140.884 504.948 140.831C504.982 140.778 505.005 140.718 505.016 140.656C505.027 140.594 505.025 140.53 505.011 140.468C504.997 140.407 504.971 140.349 504.934 140.297C504.897 140.246 504.851 140.202 504.797 140.169C504.743 140.136 504.683 140.114 504.621 140.104L504.594 140.098Z" fill="#0C0C0C"/>
<path d="M511.895 139.681C512.619 139.175 513.464 138.87 514.344 138.797C514.789 138.756 515.238 138.782 515.675 138.876C516.118 138.968 516.548 139.116 516.954 139.315L516.976 139.325C517.051 139.357 517.134 139.358 517.21 139.33C517.286 139.301 517.348 139.245 517.383 139.172C517.419 139.1 517.425 139.016 517.401 138.939C517.376 138.862 517.324 138.797 517.253 138.758C516.807 138.507 516.33 138.314 515.836 138.182C515.335 138.047 514.818 137.988 514.3 138.006C513.245 138.038 512.219 138.352 511.327 138.917C511.223 138.986 511.151 139.093 511.125 139.216C511.1 139.338 511.123 139.465 511.191 139.57C511.259 139.675 511.365 139.75 511.487 139.777C511.61 139.804 511.737 139.782 511.843 139.716L511.864 139.702L511.895 139.681Z" fill="#0C0C0C"/>
<path d="M574.124 203.096C574.377 208.393 574.997 215.617 575.732 223.071C573.847 225.977 571.772 228.756 569.521 231.389C568.089 233.057 566.59 234.667 565.026 236.22C556.557 244.565 546.3 250.877 535.032 254.68C523.763 258.484 511.778 259.678 499.981 258.174C498.592 251.379 496.715 242.214 494.979 233.82C492.978 224.138 491.16 215.473 490.513 212.635C487.924 201.376 483.536 194.346 484.69 187.737C485.038 185.78 485.833 183.929 487.014 182.328C491.379 176.177 504.582 173.903 509.906 173.149C509.999 173.136 510.577 185.623 527.946 182.32C540.712 179.895 539.712 168.926 539.712 168.926C539.712 168.926 546.132 168.438 550.447 168.405C557.508 168.36 562.413 170.061 566.555 173.178C570.419 176.084 572.997 179.445 574.124 203.096Z" fill="#367CFF"/>
<path d="M464.77 182.58L462.936 169.477C462.896 169.189 462.797 168.912 462.644 168.665C462.491 168.417 462.288 168.204 462.048 168.039C461.808 167.874 461.536 167.761 461.25 167.707C460.964 167.653 460.67 167.66 460.386 167.726C459.867 167.864 459.417 168.19 459.124 168.64C458.832 169.091 458.717 169.634 458.802 170.164L459.195 172.974L453.898 164.709C453.325 163.779 452.027 163.005 451.025 163.716C450.622 163.965 450.315 164.342 450.154 164.787C449.994 165.233 449.989 165.719 450.14 166.167C450.13 166.17 450.12 166.175 450.111 166.18C450.104 166.185 450.099 166.19 450.094 166.197L449.21 164.764C449.047 164.498 448.826 164.273 448.564 164.104C448.302 163.934 448.005 163.826 447.696 163.785C447.386 163.745 447.072 163.775 446.775 163.871C446.478 163.968 446.207 164.13 445.98 164.344C445.631 164.69 445.41 165.145 445.356 165.633C445.302 166.121 445.417 166.613 445.682 167.026L446.058 167.636C446.046 167.655 446.036 167.676 446.031 167.698C445.681 167.345 445.218 167.128 444.723 167.086C444.228 167.043 443.734 167.178 443.329 167.465C442.895 167.794 442.601 168.273 442.505 168.809C442.41 169.344 442.519 169.896 442.813 170.353L443.746 171.868C443.718 171.856 443.687 171.851 443.657 171.853C443.626 171.855 443.596 171.864 443.57 171.88C443.54 171.901 443.516 171.93 443.501 171.963C443.103 171.735 442.64 171.644 442.184 171.705C441.728 171.765 441.305 171.973 440.979 172.298C440.644 172.645 440.437 173.095 440.389 173.575C440.342 174.056 440.459 174.537 440.72 174.943L448.597 187.724C449.699 189.512 451.311 190.93 453.225 191.797C455.139 192.663 457.269 192.939 459.342 192.588C461.129 192.286 462.728 191.299 463.799 189.838C464.87 188.377 465.329 186.556 465.078 184.763L464.77 182.58Z" fill="#E98862"/>
<g opacity="0.2">
<path d="M455.342 174.376C455.299 174.402 455.247 174.41 455.197 174.399C455.148 174.388 455.105 174.357 455.077 174.315L450.051 166.447C450.036 166.425 450.025 166.401 450.019 166.375C450.014 166.35 450.013 166.323 450.018 166.297C450.023 166.272 450.034 166.247 450.048 166.225C450.063 166.204 450.082 166.185 450.105 166.171C450.127 166.157 450.151 166.147 450.177 166.143C450.203 166.139 450.23 166.14 450.255 166.146C450.281 166.153 450.305 166.164 450.326 166.18C450.347 166.196 450.364 166.216 450.377 166.239L455.404 174.107C455.418 174.128 455.427 174.152 455.431 174.177C455.436 174.202 455.435 174.228 455.43 174.253C455.424 174.277 455.414 174.301 455.399 174.322C455.385 174.342 455.366 174.36 455.345 174.374L455.342 174.376Z" fill="#0C0C0C"/>
</g>
<g opacity="0.2">
<path d="M451.929 176.688C451.886 176.714 451.834 176.723 451.784 176.711C451.735 176.7 451.692 176.669 451.665 176.626L446.055 167.846C446.028 167.802 446.02 167.751 446.031 167.701C446.042 167.652 446.072 167.609 446.115 167.582C446.158 167.557 446.21 167.549 446.258 167.56C446.307 167.571 446.35 167.6 446.379 167.641L451.989 176.421C452.016 176.465 452.025 176.517 452.014 176.567C452.003 176.617 451.973 176.661 451.929 176.688L451.929 176.688Z" fill="#0C0C0C"/>
</g>
<g opacity="0.2">
<path d="M448.247 179.213C448.204 179.239 448.152 179.248 448.102 179.236C448.053 179.225 448.01 179.194 447.983 179.151L443.508 172.147C443.481 172.104 443.471 172.052 443.482 172.002C443.494 171.952 443.524 171.908 443.567 171.881C443.61 171.853 443.663 171.844 443.713 171.855C443.763 171.866 443.806 171.896 443.834 171.94L448.31 178.941C448.338 178.985 448.347 179.037 448.336 179.087C448.325 179.137 448.294 179.181 448.251 179.208L448.247 179.213Z" fill="#0C0C0C"/>
</g>
<path d="M511.569 195.153L488.713 249.572C487.881 251.55 486.606 253.311 484.987 254.721C482.016 253.723 479.11 252.543 476.286 251.188C470.268 248.317 464.642 244.69 459.546 240.393L443.536 190.047L469.399 180.951L476.938 205.215L485.716 184.316L511.569 195.153Z" fill="#367CFF"/>
<path d="M508.214 155.517C511.156 155.182 513.902 153.878 516.019 151.809C516.093 151.738 516.185 151.689 516.286 151.668C516.386 151.648 516.49 151.656 516.586 151.692C516.682 151.728 516.765 151.791 516.827 151.873C516.888 151.955 516.925 152.052 516.933 152.154C517.05 153.905 516.774 157.213 513.245 158.268C510.967 158.949 508.957 157.471 507.893 156.439C507.819 156.367 507.768 156.276 507.744 156.176C507.72 156.077 507.726 155.972 507.76 155.875C507.793 155.778 507.854 155.693 507.935 155.63C508.015 155.566 508.112 155.527 508.214 155.517Z" fill="white"/>
<path d="M583.709 207.007C580.49 215.922 575.683 224.183 569.521 231.389C568.089 233.057 566.591 234.667 565.026 236.22L544.116 191.428L570.658 179.047L583.709 207.007Z" fill="#367CFF"/>
<path d="M565.263 235.987C565.186 236.06 565.102 236.143 565.026 236.22C564.95 236.297 564.871 236.374 564.793 236.447L548.86 202.325L549.427 202.062L565.263 235.987Z" fill="#0C0C0C"/>
<path d="M495.456 236.022C495.378 236.033 495.3 236.014 495.236 235.97C495.172 235.926 495.126 235.859 495.109 235.783L492.078 222.54C492.06 222.459 492.074 222.375 492.118 222.305C492.162 222.235 492.232 222.185 492.313 222.167C492.393 222.148 492.478 222.163 492.548 222.207C492.618 222.251 492.668 222.321 492.686 222.401L495.717 235.644C495.735 235.725 495.721 235.809 495.677 235.879C495.633 235.949 495.563 235.998 495.483 236.017L495.456 236.022Z" fill="#0C0C0C"/>
<path d="M288.646 401.179C332.028 393.307 360.822 351.792 352.958 308.451C345.095 265.111 303.552 236.357 260.169 244.228C216.787 252.1 187.994 293.615 195.857 336.955C203.721 380.296 245.264 409.05 288.646 401.179Z" fill="white"/>
<path opacity="0.09" d="M352.959 308.449C355.775 323.97 353.921 339.978 347.631 354.449C341.341 368.92 330.899 381.204 317.623 389.748C304.348 398.291 288.836 402.711 273.05 402.448C257.263 402.184 241.911 397.25 228.934 388.268C215.958 379.286 205.94 366.661 200.147 351.989C194.354 337.316 193.047 321.255 196.391 305.837C199.734 290.419 207.578 276.337 218.931 265.37C230.284 254.404 244.636 247.046 260.171 244.227C270.49 242.316 281.085 242.463 291.346 244.661C301.606 246.859 311.329 251.064 319.954 257.034C328.579 263.003 335.936 270.62 341.6 279.444C347.265 288.269 351.125 298.126 352.959 308.449Z" fill="#367CFF"/>
<path d="M231.24 282.726C231.24 282.726 232.599 294.715 230.711 299.498C225.276 313.264 225.576 327.588 234.587 333.466C243.598 339.345 292.673 330.544 293.354 313.143C293.926 298.493 286.939 298.197 283.198 286.876C281.505 281.754 277.471 271.101 277.471 271.101" fill="#0A0A0A"/>
<path d="M280.211 312.992C280.124 312.996 282.011 328.744 263.651 330.675C250.941 332.012 244.058 319.531 243.771 319.583C245.071 319.051 247.272 318.22 247.816 317.791C249.598 316.373 251.841 314.827 251.782 310.88C251.75 308.608 249.076 297.423 248.865 295.153L268.893 295.953C269.48 300.718 269.582 312 276.531 312.738C277.683 312.858 278.919 312.938 280.211 312.992Z" fill="#E98862"/>
<path opacity="0.5" d="M271.539 309.025C271.062 308.108 270.686 307.143 270.419 306.145C269.788 303.872 269.408 301.536 269.285 299.18C265.277 299.363 261.299 298.419 257.802 296.455C257.684 297.839 256.764 303.957 257.536 305.112C258.996 307.293 264.532 310.296 271.539 309.025Z" fill="#0C0C0C"/>
<path d="M268.17 304.623C260.714 306.735 250.344 305.482 246.479 295.755L242.99 286.978C239.124 277.25 241.105 267.334 250.273 263.695C259.441 260.054 269.428 265.217 273.294 274.947L274.839 278.833C276.322 282.565 281.473 300.857 268.17 304.623Z" fill="#E98862"/>
<path opacity="0.1" d="M260.945 292.27C262.167 291.895 262.934 290.864 262.659 289.969C262.384 289.073 261.17 288.652 259.948 289.027C258.726 289.403 257.959 290.433 258.234 291.328C258.51 292.224 259.724 292.646 260.945 292.27Z" fill="#0C0C0C"/>
<path opacity="0.1" d="M273.478 286.215C273.756 287.108 274.968 287.526 276.191 287.155C276.402 287.09 276.606 287.003 276.8 286.896C276.66 285.796 276.473 284.747 276.265 283.782C275.903 283.759 275.539 283.803 275.193 283.914C273.97 284.287 273.203 285.317 273.478 286.215Z" fill="#0C0C0C"/>
<path opacity="0.5" d="M268.472 290.04L268.491 290.037C268.861 289.886 269.223 289.715 269.575 289.524C270.101 289.239 270.773 288.797 270.583 288.31C270.362 287.756 266.467 282.379 266.022 281.767C265.982 281.718 265.924 281.686 265.861 281.677C265.798 281.669 265.734 281.685 265.682 281.723C265.63 281.76 265.595 281.816 265.583 281.879C265.572 281.941 265.584 282.006 265.619 282.059C267.281 284.352 269.971 288.121 270.119 288.494C270.091 288.686 269.228 289.206 268.306 289.573C268.248 289.598 268.202 289.644 268.176 289.702C268.151 289.76 268.148 289.825 268.17 289.885C268.191 289.945 268.234 289.994 268.29 290.023C268.346 290.052 268.411 290.059 268.472 290.041L268.472 290.04Z" fill="#0C0C0C"/>
<path d="M235.991 291.625L244.22 288.413C250.175 284.548 249.968 273 249.968 273C249.968 273 259.294 279.124 277.471 271.099C277.471 271.099 268.532 245.34 241.927 258.479C233.348 262.715 228.61 273.093 231.778 285.126C233.998 293.56 235.991 291.625 235.991 291.625Z" fill="#0A0A0A"/>
<path d="M248.225 298.493C245.439 299.598 241.997 297.518 240.894 294.733C239.79 291.949 241.436 289.518 244.222 288.412L246.399 289.707L250.623 297.541L248.225 298.493Z" fill="#E98862"/>
<path d="M267.22 276.698C267.851 276.055 268.641 275.591 269.51 275.353C269.945 275.23 270.397 275.174 270.849 275.185C271.305 275.195 271.758 275.261 272.197 275.384L272.211 275.387C272.259 275.397 272.308 275.388 272.35 275.362C272.391 275.337 272.422 275.296 272.434 275.249C272.447 275.202 272.441 275.152 272.417 275.109C272.394 275.066 272.355 275.034 272.309 275.019C271.84 274.871 271.355 274.783 270.864 274.756C270.369 274.727 269.873 274.772 269.391 274.89C268.416 275.124 267.521 275.614 266.799 276.31C266.771 276.336 266.748 276.367 266.732 276.402C266.717 276.437 266.708 276.475 266.707 276.513C266.706 276.551 266.713 276.589 266.727 276.625C266.741 276.661 266.762 276.693 266.789 276.72C266.816 276.748 266.848 276.769 266.884 276.784C266.919 276.798 266.957 276.806 266.996 276.805C267.034 276.805 267.072 276.797 267.107 276.782C267.142 276.767 267.174 276.744 267.2 276.717L267.206 276.711L267.22 276.698Z" fill="#0C0C0C"/>
<path d="M259.623 279.188C258.619 279.171 257.629 279.424 256.757 279.92C256.325 280.162 255.932 280.468 255.592 280.827C255.251 281.182 254.957 281.578 254.715 282.006C254.691 282.049 254.684 282.099 254.696 282.147C254.708 282.195 254.738 282.237 254.779 282.263C254.821 282.289 254.872 282.298 254.92 282.288C254.968 282.278 255.011 282.249 255.038 282.208L255.046 282.196C255.283 281.807 255.568 281.448 255.895 281.13C256.217 280.813 256.586 280.546 256.988 280.338C257.785 279.92 258.68 279.72 259.579 279.758L259.602 279.759C259.64 279.762 259.678 279.758 259.714 279.746C259.75 279.734 259.784 279.715 259.812 279.69C259.841 279.665 259.865 279.634 259.881 279.6C259.898 279.566 259.908 279.529 259.91 279.491C259.912 279.453 259.907 279.415 259.894 279.379C259.882 279.343 259.862 279.31 259.836 279.282C259.811 279.254 259.78 279.231 259.745 279.215C259.71 279.199 259.673 279.19 259.635 279.189L259.623 279.188Z" fill="#0C0C0C"/>
<path d="M244.2 288.272C249.548 285.099 250.732 280.798 250.785 277.747C250.808 275.715 250.406 273.7 249.604 271.832L249.435 271.913C250.226 273.757 250.622 275.745 250.598 277.751C250.545 280.751 249.377 284.985 244.104 288.112L244.2 288.272Z" fill="#0C0C0C"/>
<path d="M321.63 302.272L322.952 290.011C322.981 289.742 323.066 289.481 323.202 289.246C323.337 289.012 323.519 288.807 323.738 288.647C323.957 288.487 324.206 288.373 324.471 288.314C324.735 288.256 325.01 288.252 325.275 288.305C325.763 288.418 326.192 288.708 326.478 289.118C326.764 289.529 326.888 290.031 326.824 290.527L326.541 293.156L331.229 285.297C331.735 284.413 332.92 283.653 333.874 284.285C334.257 284.504 334.554 284.847 334.717 285.256C334.88 285.666 334.899 286.119 334.772 286.541C334.781 286.544 334.79 286.547 334.799 286.552C334.805 286.556 334.811 286.562 334.816 286.567L335.596 285.205C335.74 284.953 335.94 284.737 336.179 284.571C336.418 284.406 336.691 284.295 336.978 284.249C337.265 284.202 337.558 284.22 337.838 284.301C338.117 284.382 338.374 284.524 338.592 284.717C338.927 285.028 339.146 285.445 339.211 285.898C339.276 286.351 339.183 286.813 338.949 287.206L338.617 287.785C338.63 287.803 338.639 287.822 338.644 287.844C338.959 287.504 339.385 287.288 339.845 287.233C340.305 287.179 340.769 287.289 341.155 287.545C341.569 287.838 341.858 288.276 341.963 288.771C342.068 289.267 341.982 289.784 341.722 290.219L340.897 291.659C340.923 291.646 340.952 291.64 340.98 291.641C341.009 291.642 341.037 291.65 341.062 291.664C341.091 291.683 341.114 291.709 341.129 291.74C341.494 291.516 341.923 291.418 342.349 291.461C342.775 291.504 343.176 291.686 343.488 291.979C343.81 292.293 344.017 292.706 344.075 293.152C344.133 293.598 344.038 294.05 343.807 294.435L336.85 306.58C335.877 308.279 334.418 309.648 332.661 310.513C330.903 311.378 328.928 311.7 326.987 311.436C325.314 311.208 323.795 310.338 322.754 309.009C321.714 307.681 321.232 305.999 321.413 304.321L321.63 302.272Z" fill="#E98862"/>
<g opacity="0.2">
<path d="M330.168 294.347C330.209 294.369 330.257 294.375 330.302 294.363C330.347 294.351 330.386 294.322 330.41 294.282L334.858 286.802C334.882 286.761 334.889 286.712 334.877 286.666C334.866 286.619 334.836 286.58 334.795 286.555C334.754 286.531 334.704 286.524 334.658 286.536C334.612 286.548 334.572 286.577 334.548 286.618L330.1 294.098C330.088 294.118 330.08 294.141 330.076 294.164C330.073 294.188 330.074 294.211 330.08 294.234C330.086 294.257 330.096 294.279 330.111 294.298C330.125 294.317 330.143 294.333 330.163 294.345L330.168 294.347Z" fill="#0C0C0C"/>
</g>
<g opacity="0.2">
<path d="M333.415 296.396C333.456 296.419 333.504 296.424 333.549 296.412C333.594 296.4 333.633 296.371 333.657 296.331L338.62 287.984C338.633 287.963 338.641 287.941 338.644 287.918C338.647 287.894 338.646 287.87 338.64 287.847C338.634 287.824 338.624 287.803 338.61 287.784C338.596 287.765 338.578 287.749 338.557 287.737C338.516 287.714 338.467 287.708 338.421 287.72C338.376 287.732 338.336 287.76 338.31 287.8L333.351 296.147C333.339 296.167 333.331 296.19 333.328 296.213C333.324 296.237 333.326 296.26 333.332 296.283C333.337 296.306 333.348 296.328 333.362 296.347C333.376 296.366 333.394 296.382 333.414 296.394L333.415 296.396Z" fill="#0C0C0C"/>
</g>
<g opacity="0.2">
<path d="M336.919 298.636C336.96 298.659 337.008 298.665 337.053 298.653C337.098 298.641 337.137 298.612 337.161 298.572L341.121 291.914C341.142 291.873 341.147 291.825 341.134 291.781C341.122 291.736 341.092 291.698 341.053 291.675C341.013 291.651 340.966 291.644 340.921 291.654C340.876 291.664 340.836 291.691 340.81 291.729L336.851 298.388C336.839 298.409 336.831 298.431 336.827 298.455C336.824 298.478 336.825 298.502 336.831 298.525C336.837 298.548 336.847 298.569 336.862 298.588C336.876 298.607 336.894 298.623 336.914 298.635L336.919 298.636Z" fill="#0C0C0C"/>
</g>
<path d="M343.448 303.561L341.09 366.133C341.084 366.273 341.079 366.42 341.066 366.561C338.65 370.219 335.942 373.674 332.966 376.894C332.367 377.535 331.766 378.169 331.144 378.788C330.713 378.917 330.276 379.022 329.833 379.102C327.467 379.531 325.03 379.33 322.767 378.52C320.503 377.71 318.493 376.32 316.938 374.489L283.706 335.347L304.62 317.627L315.018 329.875L316.049 302.539L343.448 303.561Z" fill="#0CBC8B"/>
<path d="M307.572 338.403C307.666 339.372 307.815 341.105 308.001 343.387C308.977 355.047 311.03 381.059 311.976 393.079C297.748 400.643 281.569 403.749 265.55 401.99L265.544 401.991C253.711 400.671 242.325 396.718 232.223 390.422C230.357 379.859 228.05 368.016 225.954 360.513C219.689 338.093 221.052 334.158 223.758 330.257C223.979 329.938 224.213 329.624 224.448 329.315C227.301 325.596 231.22 322.797 237.314 320.818C241.346 319.511 247.489 317.979 247.489 317.979C247.489 317.979 249.948 328.529 262.606 326.84C279.839 324.542 276.515 312.713 276.601 312.697C280.899 311.917 290.512 310.452 297.102 312.426C297.108 312.425 297.108 312.425 297.116 312.43C298.438 312.8 299.687 313.393 300.809 314.183C309.046 320.243 306.205 323.989 307.572 338.403Z" fill="#0CBC8B"/>
<path d="M271.377 291.569C269.139 293.269 266.397 294.175 263.586 294.145C263.489 294.145 263.393 294.171 263.311 294.223C263.228 294.274 263.162 294.348 263.12 294.436C263.078 294.524 263.062 294.622 263.074 294.718C263.085 294.815 263.124 294.906 263.186 294.981C264.255 296.259 266.617 298.348 269.732 296.757C271.743 295.73 272.151 293.397 272.203 291.99C272.207 291.893 272.183 291.797 272.133 291.713C272.084 291.629 272.012 291.56 271.925 291.516C271.838 291.472 271.74 291.453 271.643 291.463C271.546 291.472 271.454 291.509 271.377 291.569Z" fill="white"/>
<path d="M269.544 280.585C270.202 280.466 270.638 279.836 270.519 279.179C270.4 278.521 269.77 278.085 269.112 278.205C268.454 278.324 268.017 278.954 268.136 279.611C268.256 280.268 268.886 280.704 269.544 280.585Z" fill="#0C0C0C"/>
<path d="M258.457 284.665C259.115 284.545 259.552 283.916 259.433 283.258C259.314 282.601 258.683 282.165 258.026 282.284C257.368 282.404 256.931 283.033 257.05 283.691C257.169 284.348 257.799 284.784 258.457 284.665Z" fill="#0C0C0C"/>
<path d="M309.599 364.574C309.592 364.576 309.584 364.577 309.576 364.578C309.526 364.58 309.478 364.562 309.442 364.529C309.405 364.495 309.383 364.449 309.381 364.399L307.641 342.818C307.64 342.793 307.643 342.769 307.651 342.745C307.66 342.722 307.672 342.701 307.689 342.682C307.706 342.664 307.726 342.65 307.749 342.64C307.771 342.629 307.796 342.624 307.82 342.623C307.87 342.621 307.918 342.639 307.955 342.672C307.991 342.706 308.013 342.753 308.015 342.802L309.755 364.383C309.757 364.429 309.742 364.473 309.713 364.508C309.684 364.543 309.644 364.566 309.599 364.574Z" fill="#0C0C0C"/>
<path d="M296.666 365.866L307.245 358.641C307.478 358.483 307.741 358.375 308.017 358.323C308.294 358.272 308.578 358.279 308.851 358.343C309.125 358.407 309.382 358.528 309.607 358.697C309.832 358.866 310.019 359.079 310.156 359.324C310.396 359.785 310.456 360.318 310.325 360.821C310.194 361.323 309.881 361.759 309.446 362.044L307.178 363.595L316.549 361.994C317.59 361.797 318.988 362.22 319.131 363.399C319.216 363.849 319.145 364.315 318.931 364.72C318.717 365.124 318.372 365.445 317.952 365.629C317.957 365.638 317.96 365.648 317.962 365.657C317.962 365.665 317.962 365.673 317.962 365.681L319.564 365.379C319.86 365.323 320.165 365.334 320.457 365.411C320.748 365.488 321.019 365.629 321.249 365.823C321.479 366.018 321.663 366.261 321.787 366.536C321.912 366.81 321.973 367.109 321.967 367.41C321.947 367.885 321.765 368.338 321.45 368.695C321.136 369.051 320.709 369.289 320.24 369.369L319.558 369.497C319.553 369.519 319.544 369.539 319.531 369.557C320.012 369.577 320.47 369.767 320.823 370.093C321.176 370.42 321.402 370.861 321.46 371.338C321.507 371.862 321.355 372.384 321.034 372.801C320.713 373.219 320.247 373.499 319.727 373.588L318.034 373.907C318.061 373.92 318.085 373.938 318.104 373.962C318.122 373.985 318.135 374.013 318.14 374.042C318.145 374.077 318.14 374.112 318.125 374.145C318.549 374.281 318.916 374.553 319.17 374.919C319.423 375.284 319.55 375.723 319.529 376.168C319.499 376.633 319.312 377.075 318.999 377.422C318.686 377.768 318.265 377.999 317.804 378.077L303.519 380.774C301.52 381.151 299.455 380.923 297.587 380.12C295.719 379.317 294.134 377.975 293.035 376.265C292.087 374.791 291.752 373.006 292.101 371.289C292.45 369.572 293.455 368.058 294.903 367.069L296.666 365.866Z" fill="#E98862"/>
<g opacity="0.2">
<path d="M308.684 367.259C308.693 367.307 308.721 367.351 308.762 367.379C308.802 367.407 308.853 367.418 308.901 367.409L317.811 365.875C317.86 365.867 317.904 365.839 317.932 365.799C317.961 365.758 317.972 365.708 317.964 365.659C317.955 365.611 317.928 365.567 317.887 365.539C317.847 365.51 317.797 365.499 317.748 365.507L308.837 367.041C308.788 367.05 308.745 367.078 308.716 367.118C308.688 367.159 308.677 367.209 308.686 367.258L308.684 367.259Z" fill="#0C0C0C"/>
</g>
<g opacity="0.2">
<path d="M309.252 371.205C309.261 371.254 309.289 371.297 309.329 371.325C309.37 371.353 309.42 371.364 309.469 371.355L319.412 369.644C319.461 369.635 319.504 369.607 319.532 369.566C319.561 369.525 319.571 369.475 319.563 369.426C319.552 369.378 319.524 369.336 319.484 369.308C319.443 369.28 319.394 369.269 319.345 369.276L309.402 370.988C309.353 370.997 309.31 371.024 309.282 371.065C309.253 371.106 309.243 371.156 309.252 371.205Z" fill="#0C0C0C"/>
</g>
<g opacity="0.2">
<path d="M309.841 375.478C309.85 375.527 309.878 375.57 309.919 375.598C309.959 375.626 310.01 375.637 310.058 375.628L317.99 374.263C318.039 374.255 318.082 374.227 318.11 374.186C318.138 374.145 318.149 374.095 318.14 374.046C318.132 373.998 318.104 373.954 318.063 373.926C318.022 373.898 317.972 373.887 317.923 373.896L309.992 375.262C309.943 375.27 309.9 375.298 309.872 375.339C309.843 375.38 309.832 375.43 309.841 375.479L309.841 375.478Z" fill="#0C0C0C"/>
</g>
<path d="M303.68 385.746L265.55 401.99L265.544 401.991C253.711 400.671 242.325 396.718 232.223 390.422C231.138 389.746 230.069 389.045 229.017 388.32C227.183 387.053 225.405 385.712 223.683 384.297L221.133 338.547C221.086 334.83 222.518 331.247 225.116 328.585C227.713 325.922 231.262 324.4 234.982 324.351C238.702 324.303 242.288 325.733 244.952 328.327C247.616 330.921 249.139 334.467 249.186 338.183L253.288 380.83L295.81 362.757L303.68 385.746Z" fill="#0CBC8B"/>
<path d="M244.618 384.107C244.594 384.114 244.569 384.115 244.545 384.112C244.521 384.108 244.497 384.1 244.476 384.088C244.455 384.075 244.436 384.059 244.421 384.039C244.407 384.019 244.396 383.997 244.39 383.973C244.383 383.949 244.382 383.925 244.385 383.9C244.389 383.876 244.397 383.852 244.409 383.831C244.422 383.81 244.438 383.792 244.458 383.777C244.478 383.762 244.5 383.751 244.524 383.745L253.07 380.233C253.093 380.225 253.118 380.222 253.142 380.223C253.167 380.225 253.191 380.231 253.213 380.242C253.235 380.253 253.254 380.268 253.271 380.286C253.287 380.305 253.299 380.326 253.307 380.349C253.315 380.372 253.318 380.397 253.317 380.422C253.315 380.446 253.309 380.47 253.298 380.492C253.287 380.514 253.272 380.534 253.253 380.55C253.235 380.566 253.213 380.578 253.19 380.586L244.641 384.099C244.634 384.102 244.626 384.105 244.618 384.107Z" fill="#0C0C0C"/>
<path d="M303.679 385.746C303.698 385.791 303.698 385.841 303.681 385.887C303.663 385.932 303.629 385.969 303.585 385.99L266.602 402.096C266.344 402.073 266.093 402.049 265.841 402.019L303.259 385.733L295.554 363.089L253.2 380.586C253.172 380.596 253.142 380.599 253.113 380.596C253.084 380.592 253.056 380.582 253.031 380.566C253.009 380.548 252.991 380.525 252.977 380.499C252.964 380.473 252.956 380.445 252.953 380.416L251.069 355.962C251.069 355.938 251.074 355.913 251.083 355.891C251.093 355.868 251.107 355.847 251.124 355.83C251.141 355.813 251.162 355.799 251.185 355.79C251.208 355.78 251.232 355.776 251.257 355.776C251.306 355.775 251.354 355.793 251.39 355.827C251.425 355.861 251.446 355.908 251.448 355.957L253.325 380.159L295.559 362.664C295.581 362.653 295.606 362.647 295.631 362.647C295.657 362.647 295.681 362.652 295.704 362.663C295.727 362.67 295.749 362.682 295.767 362.699C295.785 362.715 295.8 362.735 295.81 362.757L303.679 385.746Z" fill="#0C0C0C"/>
<path d="M23.353 542.707C63.1321 535.489 89.5341 497.422 82.3236 457.681C75.1132 417.94 37.0207 391.575 -2.75837 398.792C-42.5374 406.01 -68.9394 444.077 -61.729 483.818C-54.5185 523.559 -16.426 549.924 23.353 542.707Z" fill="white"/>
<path opacity="0.09" d="M23.353 542.707C63.1321 535.489 89.5341 497.422 82.3236 457.681C75.1132 417.94 37.0207 391.575 -2.75837 398.792C-42.5374 406.01 -68.9394 444.077 -61.729 483.818C-54.5185 523.559 -16.426 549.924 23.353 542.707Z" fill="#367CFF"/>
<path d="M-16.943 433.534C-16.943 433.534 -12.2304 455.065 2.42929 453.434L-0.303412 424.41L-16.943 433.534Z" fill="#0A0A0A"/>
<path d="M25.3451 459.666C25.2665 459.669 26.9689 473.876 10.4056 475.616C-1.06043 476.823 -7.26919 465.564 -7.52793 465.611C-6.27411 465.162 -5.05492 464.622 -3.88016 463.995C-2.27251 462.715 -0.248813 461.321 -0.301962 457.76C-0.332292 455.708 -2.74229 445.619 -2.93564 443.573L15.1319 444.295C15.6588 448.595 15.7532 458.77 22.0224 459.437C23.0644 459.546 24.1794 459.618 25.3451 459.666Z" fill="#E98862"/>
<path opacity="0.5" d="M17.5222 456.087C17.091 455.26 16.7518 454.388 16.5108 453.486C15.9418 451.436 15.5988 449.329 15.4881 447.204C11.8724 447.368 8.28333 446.516 5.12867 444.744C5.022 445.992 4.19206 451.513 4.88822 452.554C6.20503 454.527 11.2009 457.234 17.5222 456.087Z" fill="#0C0C0C"/>
<path d="M14.1149 452.794C7.25332 454.13 -1.97357 452.223 -4.71379 443.186L-7.18664 435.03C-9.92748 425.994 -7.39854 417.227 1.119 414.648C9.63559 412.068 18.2226 417.464 20.9635 426.5L22.058 430.11C23.1098 433.579 26.3577 450.412 14.1149 452.794Z" fill="#E98862"/>
<path d="M19.5203 430.315C20.1159 430.207 20.5112 429.637 20.4033 429.042C20.2953 428.447 19.7249 428.052 19.1293 428.16C18.5336 428.268 18.1383 428.838 18.2463 429.433C18.3542 430.028 18.9246 430.423 19.5203 430.315Z" fill="#0C0C0C"/>
<path d="M8.72532 433.574C9.32096 433.466 9.71629 432.896 9.60832 432.301C9.50035 431.706 8.92998 431.311 8.33434 431.419C7.73871 431.528 7.34338 432.098 7.45135 432.693C7.55931 433.288 8.12969 433.682 8.72532 433.574Z" fill="#0C0C0C"/>
<path opacity="0.5" d="M15.4884 439.708L15.5056 439.704C15.8501 439.597 16.1886 439.471 16.5194 439.327C17.0128 439.108 17.6534 438.764 17.5163 438.311C17.3596 437.797 14.2639 432.669 13.9112 432.086C13.8959 432.061 13.8758 432.039 13.8521 432.022C13.8283 432.004 13.8014 431.992 13.7728 431.985C13.7441 431.978 13.7144 431.976 13.6853 431.981C13.6561 431.985 13.6282 431.995 13.603 432.011C13.5777 432.026 13.5558 432.046 13.5383 432.07C13.5208 432.093 13.5082 432.12 13.5012 432.149C13.4941 432.177 13.4928 432.207 13.4972 432.236C13.5017 432.265 13.5118 432.293 13.5271 432.318C14.8472 434.502 16.9818 438.095 17.0866 438.443C16.591 438.853 16.0041 439.139 15.3752 439.276C15.3176 439.291 15.2684 439.328 15.2383 439.379C15.2083 439.431 15.1999 439.492 15.2149 439.549C15.23 439.607 15.2673 439.656 15.3186 439.686C15.37 439.716 15.4311 439.724 15.4887 439.709L15.4884 439.708Z" fill="#0C0C0C"/>
<path opacity="0.5" d="M14.6303 443.831C16.0285 443.494 17.3281 442.834 18.4243 441.903C18.4671 441.864 18.4934 441.811 18.4978 441.753C18.5021 441.696 18.4842 441.639 18.4477 441.594C18.4113 441.55 18.359 441.521 18.3018 441.513C18.2445 441.506 18.1867 441.521 18.1402 441.555C15.7605 443.497 13.246 444.041 10.8701 443.128C10.8218 443.108 10.7726 443.091 10.7226 443.076C10.6659 443.065 10.607 443.076 10.5583 443.107C10.5097 443.138 10.4748 443.187 10.4612 443.243C10.4475 443.299 10.4559 443.359 10.4848 443.409C10.5137 443.459 10.5607 443.496 10.6162 443.512C10.6343 443.518 10.6657 443.53 10.7086 443.547C11.9582 444.029 13.3238 444.128 14.6303 443.831Z" fill="#0C0C0C"/>
<path d="M-13.8293 438.682L-6.18947 436.414C-0.544682 433.392 0.141362 422.991 0.141362 422.991C0.141362 422.991 6.62166 428.12 22.0376 422.444C22.0376 422.444 17.7002 402.05 -5.99081 409.33C-14.2393 411.866 -19.0642 421.466 -17.1259 432.523C-15.7671 440.271 -13.8293 438.682 -13.8293 438.682Z" fill="#0A0A0A"/>
<path d="M15.0226 427.241C15.7241 426.669 16.5666 426.295 17.4619 426.158C17.9036 426.088 18.3532 426.085 18.7958 426.148C19.2351 426.209 19.6649 426.326 20.0751 426.494C20.1161 426.511 20.1491 426.543 20.1672 426.583C20.1853 426.623 20.1871 426.669 20.1722 426.711C20.1573 426.753 20.1269 426.787 20.0873 426.807C20.0477 426.827 20.002 426.83 19.9596 426.817L19.9475 426.813C19.5618 426.67 19.1596 426.575 18.7502 426.533C18.3444 426.487 17.934 426.504 17.5331 426.582C16.7344 426.731 15.9893 427.089 15.3735 427.618L15.3588 427.632C15.3338 427.656 15.3041 427.674 15.2717 427.686C15.2393 427.699 15.2047 427.704 15.1701 427.703C15.1355 427.701 15.1016 427.693 15.0703 427.678C15.039 427.663 15.011 427.642 14.988 427.616C14.9651 427.59 14.9475 427.56 14.9365 427.527C14.9254 427.495 14.9211 427.46 14.9238 427.425C14.9265 427.391 14.9361 427.357 14.952 427.327C14.968 427.296 14.9899 427.269 15.0166 427.247L15.0226 427.241Z" fill="#0C0C0C"/>
<path d="M8.2697 429.793C7.46369 429.689 6.64465 429.802 5.89635 430.119C5.51898 430.276 5.16754 430.489 4.85396 430.751C4.53649 431.012 4.2531 431.313 4.01046 431.645L4.00282 431.655C3.97395 431.686 3.93479 431.705 3.89279 431.708C3.85079 431.712 3.80888 431.7 3.77501 431.675C3.74115 431.65 3.7177 431.614 3.70912 431.572C3.70053 431.531 3.7074 431.488 3.72844 431.452C3.97768 431.085 4.27202 430.751 4.60455 430.458C4.93881 430.161 5.31572 429.916 5.72272 429.731C6.54493 429.351 7.45397 429.199 8.35508 429.289C8.38971 429.292 8.42349 429.301 8.45439 429.317C8.4853 429.333 8.51269 429.355 8.53492 429.381C8.55715 429.408 8.57378 429.439 8.58379 429.472C8.5938 429.505 8.597 429.54 8.59319 429.575C8.58938 429.609 8.57864 429.642 8.56161 429.673C8.54459 429.703 8.52164 429.729 8.49412 429.751C8.46661 429.772 8.43509 429.787 8.40148 429.796C8.36787 429.805 8.33285 429.806 8.29851 429.801L8.29177 429.802L8.2697 429.793Z" fill="#0C0C0C"/>
<path opacity="0.52" d="M15.157 445.891C15.4107 445.834 15.6592 445.756 15.8998 445.657C15.953 445.633 15.9948 445.589 16.0164 445.535C16.0381 445.481 16.0379 445.421 16.0158 445.367C15.9938 445.313 15.9517 445.27 15.8984 445.246C15.8451 445.223 15.7847 445.221 15.73 445.241C15.36 445.426 14.9547 445.53 14.5412 445.546C14.1278 445.562 13.7158 445.49 13.3326 445.334C13.2805 445.305 13.2191 445.298 13.1619 445.314C13.1047 445.331 13.0563 445.369 13.0274 445.421C12.9986 445.473 12.9916 445.535 13.008 445.592C13.0245 445.649 13.063 445.697 13.1151 445.726C13.7561 446.015 14.4777 446.074 15.157 445.891Z" fill="#0C0C0C"/>
<path opacity="0.1" d="M8.55529 441.142C9.68211 440.896 10.4498 440.028 10.2699 439.202C10.09 438.377 9.03065 437.906 7.90382 438.152C6.777 438.397 6.00936 439.265 6.18926 440.091C6.36916 440.917 7.42846 441.387 8.55529 441.142Z" fill="#0C0C0C"/>
<path opacity="0.1" d="M20.2756 436.646C20.4581 437.47 21.5166 437.939 22.6441 437.696C22.8388 437.654 23.0287 437.591 23.2105 437.509C23.1679 436.51 23.0791 435.553 22.9652 434.67C22.641 434.621 22.3105 434.634 21.9908 434.706C20.8658 434.95 20.0984 435.816 20.2756 436.646Z" fill="#0C0C0C"/>
<path d="M52.436 470.039C53.2772 474.954 52.6524 481.11 53.3341 488.288C53.517 490.203 50.4538 496.396 50.9666 502.573C51.6273 510.438 55.4643 522.194 56.6308 527.366C46.3805 535.732 34.0548 541.168 20.9628 543.097C7.87077 545.027 -5.49879 543.379 -17.726 538.327C-20.4497 524.99 -23.7988 508.521 -24.9654 504.639C-28.7924 491.819 -29.9015 483.472 -28.507 479.221C-26.2265 472.277 -20.476 469.241 -14.2512 467.213C-10.4473 465.979 -4.65974 464.543 -4.65974 464.543C-4.65974 464.543 -2.3438 474.48 9.59066 472.89C25.8353 470.728 22.704 459.578 22.7837 459.564C28.6268 458.503 39.9533 457.891 44.7207 460.012C49.7756 462.252 51.6966 465.649 52.436 470.039Z" fill="#FFC239"/>
<path d="M-1.82648 487.768L-15.0345 539.373C-24.3224 535.947 -32.8188 530.677 -40.0114 523.88L-28.9937 480.831L-1.82648 487.768Z" fill="#FFC239"/>
<path d="M76.4685 502.002C73.2702 508.746 69.0614 514.962 63.9871 520.438C62.3182 522.248 60.5569 523.969 58.7103 525.597L27.3445 480.406L50.3866 464.432L76.4685 502.002Z" fill="#FFC239"/>
<path d="M122.11 233.645C163.527 226.131 191.015 186.497 183.508 145.121C176.001 103.744 136.341 76.2934 94.9243 83.8079C53.5081 91.3223 26.0194 130.956 33.5266 172.333C41.0339 213.709 80.6942 241.16 122.11 233.645Z" fill="white"/>
<path opacity="0.09" d="M122.11 233.645C163.527 226.131 191.015 186.497 183.508 145.121C176.001 103.744 136.341 76.2934 94.9243 83.8079C53.5081 91.3223 26.0194 130.956 33.5266 172.333C41.0339 213.709 80.6942 241.16 122.11 233.645Z" fill="#367CFF"/>
<path d="M114.878 111.233C114.878 111.233 118.694 105.23 116.55 95.5031C114.89 87.972 110.026 95.0759 110.026 95.0759C110.026 95.0759 108.777 89.6651 105.212 91.5836C101.647 93.5022 101.57 99.7066 101.57 99.7066" fill="#0C0C0C"/>
<path d="M86.0059 99.4657C86.0059 99.4657 68.1015 108.45 84.312 131.175L86.0039 130.666L89.4381 129.636" fill="#0C0C0C"/>
<path d="M122.999 150.779C122.911 150.783 124.831 166.808 106.147 168.768C93.2138 170.128 86.2098 157.428 85.9174 157.481C87.2402 156.94 88.86 156.188 89.508 155.913C90.9188 155.305 92.1108 154.281 92.9255 152.979C93.7401 151.677 94.1388 150.159 94.0685 148.625C94.0343 146.311 91.3153 134.931 91.0978 132.622L111.477 133.436C112.075 138.287 112.179 149.765 119.25 150.517C120.427 150.641 121.685 150.722 122.999 150.779Z" fill="#E98862"/>
<path opacity="0.52" d="M114.175 146.74C113.689 145.808 113.307 144.825 113.035 143.81C112.393 141.497 112.006 139.12 111.881 136.723C107.803 136.908 103.755 135.947 100.196 133.948C100.076 135.356 99.1396 141.583 99.9246 142.758C101.409 144.979 107.045 148.034 114.175 146.74Z" fill="#0C0C0C"/>
<path d="M110.062 142.273C102.463 144.369 91.9179 143.024 88.0519 133.099L84.5632 124.143C80.6967 114.215 82.7814 104.141 92.1361 100.501C101.491 96.8611 111.617 102.187 115.484 112.112L117.027 116.077C117.534 117.447 117.946 118.851 118.261 120.277C119.123 124.044 120.419 129.77 119.366 134.369C118.373 138.711 114.919 140.935 110.062 142.273Z" fill="#E98862"/>
<path opacity="0.5" d="M109.385 131.89C110.795 131.607 112.119 130.996 113.25 130.108C113.274 130.091 113.296 130.069 113.312 130.043C113.328 130.018 113.339 129.989 113.344 129.959C113.349 129.929 113.347 129.899 113.34 129.869C113.333 129.84 113.319 129.812 113.301 129.788C113.283 129.764 113.26 129.744 113.234 129.728C113.207 129.713 113.178 129.704 113.148 129.7C113.118 129.697 113.087 129.699 113.058 129.708C113.029 129.716 113.002 129.731 112.979 129.75C110.528 131.6 107.994 132.046 105.654 131.045C105.607 131.023 105.559 131.004 105.509 130.988C105.481 130.979 105.451 130.977 105.422 130.98C105.392 130.984 105.364 130.993 105.338 131.007C105.313 131.022 105.29 131.041 105.272 131.064C105.253 131.087 105.24 131.114 105.232 131.142C105.223 131.17 105.221 131.2 105.224 131.229C105.228 131.259 105.237 131.287 105.251 131.313C105.266 131.338 105.285 131.361 105.308 131.379C105.331 131.398 105.358 131.411 105.386 131.419C105.404 131.425 105.435 131.439 105.477 131.457C106.707 131.987 108.068 132.138 109.385 131.89Z" fill="#0C0C0C"/>
<path opacity="0.52" d="M109.832 133.971C110.088 133.924 110.34 133.855 110.584 133.765C110.611 133.755 110.637 133.74 110.658 133.72C110.68 133.7 110.698 133.676 110.71 133.649C110.723 133.622 110.73 133.594 110.731 133.564C110.733 133.535 110.728 133.505 110.718 133.478C110.708 133.45 110.693 133.425 110.673 133.403C110.653 133.381 110.629 133.364 110.602 133.351C110.575 133.339 110.546 133.332 110.517 133.33C110.488 133.329 110.458 133.333 110.43 133.344C110.054 133.514 109.645 133.602 109.231 133.603C108.817 133.603 108.408 133.515 108.031 133.345C107.98 133.316 107.92 133.307 107.863 133.322C107.806 133.337 107.757 133.373 107.727 133.423C107.697 133.474 107.687 133.534 107.701 133.591C107.714 133.648 107.75 133.697 107.799 133.729C108.428 134.042 109.147 134.128 109.832 133.971Z" fill="#0C0C0C"/>
<path d="M114.379 119.235C115.051 119.113 115.497 118.47 115.375 117.799C115.253 117.128 114.61 116.682 113.938 116.804C113.266 116.926 112.82 117.569 112.942 118.24C113.064 118.911 113.707 119.357 114.379 119.235Z" fill="#0C0C0C"/>
<path d="M102.801 122.762C103.473 122.64 103.919 121.997 103.797 121.326C103.676 120.655 103.032 120.21 102.36 120.332C101.689 120.453 101.243 121.096 101.365 121.768C101.486 122.439 102.13 122.884 102.801 122.762Z" fill="#0C0C0C"/>
<path d="M89.8109 135.896C86.9679 137.003 83.4799 134.861 82.3731 132.021C81.2663 129.181 82.962 126.719 85.8044 125.613L88.0095 126.945L92.2539 134.946L89.8109 135.896Z" fill="#E98862"/>
<path d="M90.9333 130.247C90.9333 130.247 86.607 115.774 90.5638 113.298C93.1987 111.649 101.632 113.1 107.583 109.48C110.186 107.895 113.107 107.592 113.873 108.814C114.177 109.297 113.102 101.116 106.57 97.0475C101.369 93.8089 89.4496 96.8086 84.8048 100.249C71.9437 109.776 85.4483 126.453 85.4483 126.453L87.9149 131.077L90.9333 130.247Z" fill="#0C0C0C"/>
<g opacity="0.52">
<path d="M110.535 127.903L110.554 127.9C111.471 127.543 112.97 126.849 112.708 126.164C112.488 125.595 108.562 120.067 108.117 119.438C108.098 119.412 108.073 119.389 108.046 119.371C108.018 119.354 107.987 119.342 107.954 119.337C107.922 119.331 107.889 119.332 107.857 119.34C107.825 119.347 107.794 119.361 107.768 119.38C107.741 119.399 107.718 119.423 107.701 119.451C107.683 119.478 107.671 119.509 107.666 119.542C107.66 119.574 107.661 119.607 107.669 119.639C107.676 119.671 107.69 119.701 107.709 119.728C109.449 122.176 112.091 125.956 112.241 126.343C112.213 126.538 111.326 127.065 110.377 127.432C110.314 127.453 110.261 127.499 110.232 127.559C110.202 127.619 110.198 127.688 110.219 127.751C110.241 127.814 110.286 127.867 110.346 127.896C110.406 127.926 110.475 127.93 110.539 127.909L110.535 127.903Z" fill="#0C0C0C"/>
</g>
<path d="M108.52 112.976C109.389 112.348 110.41 111.966 111.478 111.87C112 111.82 112.528 111.848 113.043 111.954C113.55 112.057 114.043 112.222 114.509 112.448C114.595 112.487 114.662 112.557 114.697 112.645C114.732 112.733 114.731 112.83 114.695 112.918C114.66 113.005 114.591 113.075 114.505 113.113C114.418 113.151 114.321 113.154 114.232 113.121L114.203 113.116C113.786 112.946 113.35 112.828 112.904 112.767C112.465 112.704 112.02 112.708 111.582 112.778C110.718 112.91 109.904 113.268 109.223 113.815L109.195 113.839C109.14 113.885 109.076 113.92 109.008 113.942C108.939 113.963 108.867 113.971 108.795 113.965C108.724 113.959 108.654 113.938 108.59 113.905C108.526 113.872 108.469 113.827 108.423 113.772C108.377 113.717 108.342 113.653 108.32 113.584C108.299 113.516 108.291 113.444 108.297 113.372C108.303 113.301 108.324 113.231 108.357 113.167C108.39 113.103 108.436 113.047 108.491 113.001L108.52 112.976Z" fill="#0C0C0C"/>
<path d="M101.888 116.124C101.018 116.043 100.142 116.193 99.3478 116.558C98.9437 116.74 98.5695 116.982 98.2381 117.276C97.8992 117.573 97.5989 117.912 97.3441 118.283L97.3281 118.306C97.2727 118.384 97.1893 118.436 97.0957 118.453C97.0021 118.469 96.9058 118.449 96.8271 118.396C96.7485 118.342 96.6938 118.26 96.6747 118.167C96.6557 118.074 96.6737 117.978 96.7251 117.898C96.9892 117.452 97.3086 117.042 97.6758 116.677C98.047 116.305 98.4717 115.99 98.9359 115.744C99.399 115.492 99.8944 115.305 100.408 115.188C100.934 115.063 101.474 115.012 102.013 115.039C102.158 115.046 102.295 115.111 102.392 115.218C102.489 115.326 102.54 115.468 102.533 115.613C102.525 115.758 102.461 115.894 102.353 115.991C102.245 116.089 102.103 116.139 101.958 116.132L101.925 116.129L101.888 116.124Z" fill="#0C0C0C"/>
<path d="M103.501 103.778C105.45 102.545 105.558 99.2227 103.742 96.3574C101.926 93.4921 98.8743 92.169 96.9255 93.4022C94.9768 94.6354 94.869 97.9579 96.6848 100.823C98.5007 103.688 101.552 105.012 103.501 103.778Z" fill="#0C0C0C"/>
<path d="M151.446 162.536C152.441 167.601 151.491 173.67 152.231 181.521C152.381 183.113 152.689 186.626 153.082 191.205C153.742 198.785 154.632 209.272 155.459 218.72C144.352 227.384 131.061 232.807 117.06 234.389C103.06 235.972 88.8949 233.651 76.1359 227.683C75.8294 227.53 75.5241 227.383 75.2199 227.242C72.5965 216.867 69.7499 205.995 67.7138 199.171C63.9012 186.43 60.7461 180.315 61.0623 175.74C61.0837 175.352 61.1364 174.965 61.2201 174.585C63.0098 166.263 72.5547 160.963 79.2773 158.782C83.38 157.449 89.633 155.89 89.633 155.89C89.633 155.89 92.1313 166.623 105.012 164.906C122.549 162.572 119.167 150.532 119.253 150.516C122.067 150.006 137.773 149.269 142.058 151.073C142.776 151.373 143.474 151.72 144.147 152.112C146.063 153.197 147.713 154.696 148.976 156.499C150.239 158.303 151.083 160.365 151.446 162.536Z" fill="#383838"/>
<path d="M88.8487 182.005L76.1359 227.683C75.8294 227.53 75.5241 227.383 75.2199 227.242C66.2908 222.899 58.2916 216.864 51.6665 209.472L61.0623 175.74L61.4337 174.401L88.8487 182.005Z" fill="#383838"/>
<path d="M87.7636 187.194L75.9967 227.614C75.8574 227.544 75.7253 227.479 75.5883 227.422L87.3429 187.074C87.3601 187.018 87.3986 186.971 87.4503 186.942C87.502 186.914 87.5627 186.907 87.6194 186.923C87.6746 186.94 87.7207 186.978 87.7477 187.029C87.7748 187.079 87.7805 187.139 87.7636 187.194Z" fill="white"/>
<path d="M182.656 176.43C180.485 185.444 176.689 193.988 171.455 201.645L153.082 191.205L129.745 177.938L144.147 152.112L144.19 152.034L182.656 176.43Z" fill="#383838"/>
<path d="M153.358 191.323C153.41 191.311 153.455 191.281 153.486 191.238C153.517 191.195 153.531 191.143 153.526 191.09L152.342 178.568C152.337 178.511 152.308 178.457 152.264 178.42C152.219 178.383 152.161 178.365 152.103 178.371C152.046 178.377 151.993 178.405 151.956 178.45C151.919 178.494 151.901 178.551 151.906 178.609L153.091 191.131C153.096 191.189 153.124 191.242 153.169 191.279C153.214 191.316 153.271 191.333 153.329 191.328L153.358 191.323Z" fill="white"/>
<path d="M534.084 493.997C573.586 486.83 599.805 449.027 592.645 409.563C585.484 370.098 547.657 343.916 508.154 351.083C468.652 358.251 442.433 396.053 449.594 435.517C456.754 474.982 494.582 501.164 534.084 493.997Z" fill="white"/>
<path opacity="0.09" d="M449.593 435.516C452.157 449.648 458.858 462.702 468.849 473.027C478.84 483.352 491.673 490.484 505.723 493.521C519.774 496.559 534.412 495.364 547.786 490.09C561.16 484.816 572.67 475.698 580.86 463.89C589.049 452.082 593.551 438.114 593.796 423.752C594.041 409.39 590.018 395.28 582.236 383.205C574.453 371.131 563.261 361.634 550.074 355.916C536.887 350.199 522.299 348.517 508.152 351.084C498.744 352.755 489.759 356.27 481.715 361.426C473.671 366.582 466.727 373.277 461.284 381.125C455.84 388.974 452.005 397.82 449.998 407.155C447.992 416.49 447.854 426.129 449.593 435.516Z" fill="#367CFF"/>
<path d="M546.42 377.219C547.678 390.657 549.551 394.952 556.426 401.535C562.224 407.084 534.847 406.44 522.794 406.481L527.639 374.525C527.639 374.525 545.978 372.501 546.42 377.219Z" fill="#0A0A0A"/>
<path d="M505.136 379.024C504.018 392.475 505.125 396.373 499.605 404.331C495.03 410.928 517.013 408.112 529.066 408.02L523.889 376.122C523.889 376.122 505.529 374.3 505.136 379.024Z" fill="#0A0A0A"/>
<path d="M513.066 416.118C513.14 416.093 516.57 430.123 532.839 425.893C544.102 422.967 545.977 410.125 546.239 410.078C544.895 410.098 543.552 410.02 542.219 409.844C540.246 409.205 537.839 408.604 536.627 405.221C535.928 403.271 534.628 392.882 534.084 390.877L517.266 397.966C518.291 402.218 521.815 411.866 516.126 414.719C515.178 415.194 514.149 415.658 513.066 416.118Z" fill="#E98862"/>
<path opacity="0.5" d="M519.188 409.961C519.303 409.027 519.314 408.084 519.222 407.148C519.034 405.008 518.611 402.895 517.962 400.847C521.437 399.721 524.527 397.643 526.88 394.85C527.423 395.992 530.165 400.914 529.876 402.145C529.33 404.472 525.57 408.803 519.188 409.961Z" fill="#0C0C0C"/>
<path d="M520.653 405.131C527.685 404.545 536.125 400.161 536.309 390.632L536.475 382.033C536.659 372.503 531.798 364.683 522.818 364.513C513.837 364.343 506.976 371.943 506.791 381.471L506.718 385.28C506.647 388.934 508.108 406.177 520.653 405.131Z" fill="#E98862"/>
<path d="M545.313 383.134L537.364 383.695C521.603 383.661 515.637 372.043 515.637 372.043C515.637 372.043 510.788 381.737 505 380.763C505 380.763 503.018 359.87 527.789 359.11C537.522 358.811 544.326 365.682 546.236 376.208C547.64 383.946 545.313 383.134 545.313 383.134Z" fill="#0A0A0A"/>
<path opacity="0.1" d="M524.866 390.614C524.814 389.763 523.83 389.13 522.669 389.201C521.507 389.271 520.607 390.019 520.659 390.871C520.71 391.722 521.694 392.355 522.856 392.284C524.017 392.213 524.917 391.466 524.866 390.614Z" fill="#0C0C0C"/>
<path opacity="0.1" d="M510.242 391.135C510.292 391.985 509.392 392.732 508.23 392.804C508.029 392.816 507.828 392.808 507.629 392.778C507.396 391.795 507.22 390.842 507.088 389.953C507.39 389.817 507.714 389.738 508.044 389.721C509.203 389.649 510.187 390.282 510.242 391.135Z" fill="#0C0C0C"/>
<path opacity="0.5" d="M515.731 392.796L515.714 392.799C515.35 392.789 514.987 392.76 514.626 392.71C514.086 392.632 513.37 392.474 513.379 391.997C513.389 391.455 514.991 385.624 515.174 384.961C515.181 384.932 515.194 384.904 515.212 384.88C515.23 384.856 515.253 384.835 515.279 384.82C515.305 384.804 515.334 384.795 515.364 384.791C515.394 384.787 515.425 384.789 515.454 384.797C515.483 384.805 515.511 384.818 515.535 384.837C515.558 384.856 515.578 384.879 515.593 384.906C515.607 384.932 515.617 384.962 515.62 384.992C515.623 385.022 515.62 385.052 515.611 385.081C514.927 387.564 513.839 391.641 513.832 392.006C514.426 392.269 515.074 392.386 515.723 392.346C515.781 392.348 515.836 392.372 515.877 392.413C515.918 392.454 515.942 392.51 515.943 392.568C515.944 392.626 515.923 392.682 515.884 392.725C515.844 392.768 515.79 392.795 515.732 392.799L515.731 392.796Z" fill="#0C0C0C"/>
<path d="M535.695 393.524C538.424 393.576 540.693 390.701 540.746 387.974C540.799 385.247 538.615 383.702 535.886 383.65L534.444 385.45L533.349 393.48L535.695 393.524Z" fill="#E98862"/>
<path d="M512.53 381.02C512.164 380.849 511.775 380.728 511.376 380.66C510.971 380.587 510.558 380.57 510.149 380.609C509.738 380.644 509.335 380.74 508.953 380.895C508.567 381.049 508.203 381.251 507.867 381.496L507.857 381.503C507.819 381.525 507.776 381.532 507.734 381.523C507.691 381.514 507.654 381.489 507.629 381.454C507.604 381.419 507.593 381.376 507.598 381.334C507.603 381.291 507.623 381.252 507.656 381.223C508.008 380.947 508.394 380.716 508.803 380.536C509.216 380.353 509.654 380.233 510.102 380.18C511.009 380.067 511.93 380.199 512.768 380.563C512.83 380.592 512.877 380.644 512.901 380.707C512.924 380.771 512.922 380.841 512.894 380.903C512.867 380.965 512.816 381.014 512.753 381.039C512.69 381.064 512.62 381.064 512.557 381.038L512.55 381.035L512.53 381.02Z" fill="#0C0C0C"/>
<path d="M519.804 380.713C520.654 380.378 521.578 380.276 522.481 380.42C522.927 380.488 523.361 380.623 523.767 380.82C524.17 381.013 524.548 381.256 524.891 381.544C524.927 381.572 524.951 381.613 524.957 381.658C524.963 381.704 524.951 381.75 524.923 381.787C524.895 381.823 524.854 381.847 524.808 381.853C524.763 381.859 524.717 381.847 524.68 381.819L524.669 381.812C524.342 381.556 523.984 381.342 523.604 381.175C523.227 381.007 522.828 380.898 522.418 380.849C521.604 380.748 520.778 380.863 520.023 381.184L520.005 381.192C519.942 381.22 519.871 381.222 519.806 381.198C519.741 381.173 519.689 381.124 519.661 381.061C519.633 380.998 519.631 380.926 519.656 380.862C519.68 380.797 519.729 380.745 519.792 380.717L519.804 380.713Z" fill="#0C0C0C"/>
<path d="M499.368 491.855C496.334 491.14 493.993 490.211 488.536 487.468C484.599 485.499 480.852 483.174 477.34 480.524L493.49 429.183L494.192 426.952L518.548 434.597L505.913 474.769L505.853 474.947L506.139 475.569" fill="#EA394A"/>
<path d="M574.518 439.277C575.132 446.344 576.953 457.178 578.742 466.78C570.974 476.891 560.68 484.781 548.893 489.657C537.107 494.533 524.245 496.223 511.6 494.558C507.508 480.33 501.469 459.428 497.864 446.536C494.158 433.178 489.691 429.355 498.48 421.041C503.467 417.25 512.131 415.424 516.045 414.714C517.053 427.831 544.501 424.487 542.553 409.905C563.212 408.116 572.702 406.882 574.518 439.277Z" fill="#EA394A"/>
<path d="M513.743 395.028C516.195 395.761 518.822 395.657 521.209 394.732C521.292 394.7 521.382 394.692 521.469 394.71C521.556 394.727 521.636 394.769 521.7 394.831C521.764 394.892 521.809 394.971 521.83 395.057C521.851 395.143 521.847 395.233 521.818 395.317C521.318 396.749 519.969 399.286 516.805 398.926C514.762 398.693 513.669 396.837 513.172 395.653C513.137 395.571 513.127 395.48 513.142 395.393C513.157 395.305 513.197 395.223 513.257 395.157C513.317 395.092 513.395 395.044 513.481 395.022C513.567 394.999 513.658 395.001 513.743 395.028Z" fill="white"/>
<path d="M511.793 385.077C512.392 384.969 512.789 384.396 512.681 383.797C512.572 383.199 511.998 382.802 511.399 382.91C510.8 383.019 510.403 383.592 510.511 384.191C510.62 384.789 511.193 385.186 511.793 385.077Z" fill="#0C0C0C"/>
<path d="M522.549 385.009C523.148 384.9 523.545 384.327 523.437 383.728C523.328 383.13 522.755 382.733 522.156 382.842C521.557 382.95 521.159 383.524 521.268 384.122C521.376 384.72 521.95 385.118 522.549 385.009Z" fill="#0C0C0C"/>
<path d="M504.511 469.493L504.531 469.489C504.574 469.475 504.61 469.445 504.63 469.404C504.65 469.364 504.654 469.317 504.64 469.274L499.22 450.319C499.213 450.298 499.202 450.278 499.188 450.261C499.174 450.243 499.156 450.229 499.136 450.219C499.116 450.209 499.094 450.203 499.071 450.202C499.049 450.2 499.026 450.203 499.005 450.211C498.984 450.218 498.964 450.229 498.947 450.243C498.93 450.258 498.916 450.276 498.906 450.296C498.896 450.316 498.89 450.337 498.888 450.36C498.887 450.382 498.889 450.404 498.896 450.426L504.316 469.381C504.329 469.42 504.356 469.453 504.392 469.474C504.428 469.494 504.47 469.501 504.511 469.493Z" fill="#0C0C0C"/>
<path d="M499.336 455.247L479.76 458.799L484.112 482.786L503.688 479.234L499.336 455.247Z" fill="white"/>
<path d="M493.495 468.695C493.208 467.111 493.398 465.477 494.04 464.001C494.682 462.524 495.748 461.27 497.104 460.398C498.459 459.527 500.042 459.076 501.653 459.103C503.264 459.13 504.831 459.634 506.155 460.551C507.48 461.468 508.502 462.757 509.093 464.254C509.684 465.752 509.817 467.391 509.476 468.965C509.134 470.538 508.334 471.975 507.175 473.095C506.016 474.214 504.551 474.965 502.966 475.252C500.839 475.635 498.648 475.16 496.872 473.931C495.097 472.702 493.882 470.819 493.495 468.695ZM496.779 468.1C496.948 469.035 497.392 469.899 498.053 470.582C498.714 471.265 499.563 471.737 500.493 471.938C501.423 472.139 502.392 472.06 503.277 471.711C504.162 471.362 504.924 470.759 505.466 469.977C506.008 469.196 506.306 468.271 506.322 467.321C506.338 466.371 506.072 465.437 505.557 464.638C505.042 463.839 504.301 463.21 503.428 462.832C502.556 462.453 501.59 462.342 500.654 462.512C499.399 462.741 498.287 463.458 497.56 464.506C496.834 465.553 496.553 466.846 496.779 468.1Z" fill="white"/>
<path d="M501.895 470.237C501.887 469.82 502.027 469.412 502.289 469.087C502.552 468.762 502.92 468.539 503.331 468.458C503.316 468.444 503.305 468.427 503.297 468.408L502.691 468.388C502.27 468.381 501.864 468.229 501.543 467.958C501.221 467.687 501.003 467.313 500.925 466.9C500.882 466.64 500.897 466.373 500.969 466.119C501.042 465.866 501.169 465.631 501.343 465.433C501.517 465.234 501.733 465.077 501.976 464.972C502.218 464.867 502.481 464.817 502.744 464.825L504.173 464.872C504.173 464.868 504.172 464.863 504.171 464.857C504.172 464.846 504.174 464.834 504.177 464.823C503.788 464.72 503.446 464.488 503.206 464.165C502.966 463.843 502.842 463.448 502.856 463.046C502.821 462.003 503.981 461.447 504.91 461.478L508.588 461.468L507.241 460.89C506.814 460.697 506.477 460.348 506.297 459.916C506.118 459.483 506.109 458.998 506.273 458.559C506.366 458.336 506.503 458.133 506.676 457.964C506.85 457.796 507.056 457.664 507.282 457.577C507.508 457.49 507.75 457.451 507.992 457.46C508.234 457.47 508.471 457.529 508.69 457.633L526.027 471.444L522.576 470.577C521.851 472.211 520.653 473.591 519.138 474.54C517.622 475.489 515.858 475.965 514.07 475.905L505.976 475.623C505.555 475.616 505.149 475.465 504.827 475.194C504.505 474.922 504.287 474.548 504.209 474.135C504.147 473.761 504.207 473.376 504.379 473.038C504.551 472.699 504.826 472.424 505.166 472.253C505.15 472.229 505.14 472.201 505.139 472.172C505.138 472.145 505.145 472.117 505.157 472.093C505.17 472.069 505.188 472.048 505.211 472.032L503.718 471.983C503.249 471.977 502.8 471.794 502.462 471.469C502.123 471.145 501.921 470.705 501.895 470.237Z" fill="#E98862"/>
<path opacity="0.2" d="M506.879 464.979C506.915 464.964 506.945 464.937 506.963 464.903C506.982 464.869 506.987 464.829 506.98 464.791C506.972 464.753 506.951 464.719 506.921 464.694C506.891 464.669 506.853 464.656 506.814 464.656L504.335 464.686C504.313 464.686 504.29 464.689 504.269 464.698C504.248 464.706 504.229 464.718 504.213 464.734C504.197 464.75 504.184 464.769 504.176 464.79C504.167 464.811 504.163 464.833 504.163 464.855C504.163 464.878 504.168 464.9 504.177 464.921C504.186 464.942 504.199 464.96 504.216 464.976C504.232 464.991 504.252 465.003 504.273 465.011C504.294 465.019 504.316 465.022 504.339 465.021L506.818 464.991C506.839 464.991 506.86 464.987 506.879 464.979Z" fill="#0C0C0C"/>
<path opacity="0.2" d="M506.915 468.483C506.951 468.468 506.981 468.442 507 468.407C507.018 468.373 507.024 468.334 507.017 468.296C507.009 468.257 506.988 468.223 506.958 468.198C506.928 468.174 506.891 468.16 506.852 468.161L503.451 468.175C503.428 468.174 503.406 468.177 503.384 468.185C503.363 468.193 503.343 468.205 503.327 468.221C503.311 468.237 503.298 468.255 503.289 468.276C503.28 468.297 503.275 468.32 503.275 468.343C503.275 468.365 503.28 468.388 503.289 468.409C503.298 468.429 503.311 468.448 503.328 468.464C503.344 468.479 503.364 468.491 503.385 468.499C503.407 468.507 503.429 468.51 503.452 468.509L506.853 468.496C506.874 468.495 506.896 468.491 506.915 468.483Z" fill="#0C0C0C"/>
<path opacity="0.2" d="M506.979 472.278C507.015 472.263 507.045 472.236 507.063 472.201C507.082 472.167 507.088 472.127 507.079 472.088C507.071 472.05 507.05 472.016 507.019 471.991C506.988 471.967 506.95 471.954 506.911 471.956L505.305 472C505.262 472.004 505.222 472.024 505.194 472.056C505.165 472.087 505.15 472.129 505.151 472.172C505.152 472.215 505.17 472.255 505.2 472.285C505.231 472.316 505.271 472.333 505.314 472.334L506.92 472.29C506.94 472.29 506.96 472.286 506.979 472.278Z" fill="#0C0C0C"/>
<path d="M587.248 452.655C580.735 466.909 569.796 478.687 556.054 486.239L556.047 486.235C552.683 486.189 519.465 479.585 515.219 479.526L515.911 457.801C527.848 458.001 550.461 463.018 562.465 463.214L547.572 427.671C546.98 426.09 546.707 424.406 546.77 422.718C546.834 421.03 547.232 419.371 547.942 417.837C548.652 416.304 549.659 414.927 550.906 413.785C552.152 412.643 553.613 411.76 555.204 411.187C556.794 410.614 558.483 410.361 560.171 410.445C561.86 410.529 563.515 410.946 565.041 411.674C566.567 412.401 567.932 413.424 569.059 414.683C570.186 415.943 571.051 417.413 571.605 419.009L587.248 452.655Z" fill="#EA394A"/>
<path d="M571.741 464.347C571.783 464.338 571.82 464.315 571.845 464.28C571.87 464.246 571.882 464.204 571.877 464.162C571.873 464.119 571.853 464.08 571.821 464.052C571.789 464.024 571.748 464.008 571.706 464.009L562.459 462.637C562.436 462.637 562.414 462.642 562.394 462.651C562.373 462.66 562.355 462.674 562.339 462.69C562.324 462.706 562.312 462.726 562.304 462.747C562.296 462.768 562.293 462.79 562.294 462.812C562.295 462.857 562.314 462.9 562.347 462.931C562.38 462.962 562.424 462.978 562.469 462.977L571.716 464.349C571.724 464.349 571.733 464.348 571.741 464.347Z" fill="#0C0C0C"/>
<path d="M562.618 462.754C562.632 462.806 562.626 462.861 562.6 462.907C562.584 462.929 562.563 462.947 562.539 462.959C562.516 462.971 562.489 462.978 562.462 462.979L516.236 458.001L515.573 479.38L555.864 486.336C555.754 486.397 555.638 486.458 555.528 486.518C555.449 486.561 555.37 486.604 555.285 486.643L515.378 479.707C515.334 479.703 515.292 479.682 515.263 479.649C515.233 479.616 515.218 479.572 515.219 479.528L515.912 457.803C515.913 457.78 515.919 457.759 515.93 457.739C515.94 457.719 515.954 457.702 515.971 457.688C515.988 457.672 516.007 457.659 516.029 457.651C516.05 457.643 516.073 457.64 516.096 457.643L562.22 462.656L553.561 443.143C553.547 443.1 553.55 443.054 553.57 443.014C553.59 442.974 553.624 442.943 553.666 442.928C553.687 442.92 553.709 442.916 553.732 442.916C553.754 442.917 553.776 442.922 553.797 442.931C553.817 442.94 553.836 442.953 553.851 442.969C553.866 442.986 553.878 443.005 553.886 443.026L562.618 462.754Z" fill="#0C0C0C"/>
<path d="M56.3509 527.393L56.3374 527.396C56.2975 527.405 56.2563 527.406 56.2159 527.399C56.1756 527.392 56.137 527.377 56.1023 527.356C56.0677 527.334 56.0377 527.306 56.014 527.272C55.9903 527.239 55.9735 527.201 55.9644 527.161L49.3314 498.227C49.3158 498.147 49.3312 498.063 49.3746 497.994C49.418 497.925 49.4861 497.875 49.5651 497.853C49.6051 497.844 49.6464 497.843 49.6868 497.85C49.7272 497.857 49.7659 497.871 49.8006 497.893C49.8353 497.915 49.8654 497.943 49.8891 497.976C49.9128 498.01 49.9297 498.048 49.9388 498.087L56.5718 527.022C56.5901 527.1 56.5773 527.183 56.5361 527.252C56.495 527.321 56.4286 527.372 56.3509 527.393Z" fill="#0C0C0C"/>
</svg>
